<svg width="641" height="645" viewBox="0 0 641 645" fill="none" xmlns="http://www.w3.org/2000/svg">
<g filter="url(#filter0_dddd_16145_1294)">
<rect width="350.241" height="365.637" rx="16.2274" transform="matrix(0.948683 0.316228 0 1 15 105.797)" fill="white"/>
<path d="M133.344 408.436L145.226 387.628V387.418L131.484 382.838V379.125L149.479 385.123V388.962L137.637 409.867L133.344 408.436ZM161.35 418.164C159.685 417.609 158.187 416.773 156.858 415.658C155.538 414.536 154.484 413.251 153.695 411.802C152.906 410.353 152.486 408.858 152.432 407.318L156.42 408.647C156.517 409.912 157.035 411.099 157.974 412.205C158.914 413.312 160.039 414.084 161.35 414.522C162.396 414.87 163.322 414.927 164.128 414.691C164.943 414.449 165.581 413.956 166.042 413.213C166.511 412.473 166.746 411.529 166.746 410.38C166.746 409.213 166.507 408.092 166.028 407.017C165.55 405.942 164.89 405.003 164.048 404.199C163.215 403.399 162.258 402.814 161.177 402.444C160.353 402.169 159.525 402.043 158.692 402.064C157.859 402.085 157.186 402.253 156.672 402.567L152.911 400.725L154.439 386.777L169.404 391.765V395.478L157.855 391.628L156.991 399.367L157.15 399.42C157.682 399.056 158.386 398.838 159.264 398.766C160.15 398.697 161.098 398.831 162.108 399.168C163.765 399.72 165.24 400.627 166.534 401.89C167.836 403.155 168.859 404.631 169.604 406.317C170.357 407.997 170.729 409.765 170.72 411.621C170.729 413.482 170.33 415.007 169.524 416.195C168.726 417.387 167.619 418.166 166.201 418.534C164.792 418.896 163.175 418.772 161.35 418.164ZM175.89 422.884C175.163 422.642 174.538 422.163 174.016 421.447C173.493 420.722 173.232 419.972 173.232 419.196C173.232 418.431 173.493 417.864 174.016 417.497C174.538 417.12 175.163 417.052 175.89 417.295C176.616 417.537 177.241 418.021 177.764 418.746C178.286 419.462 178.548 420.203 178.548 420.969C178.548 421.482 178.424 421.912 178.176 422.259C177.936 422.6 177.617 422.83 177.219 422.949C176.82 423.068 176.377 423.047 175.89 422.884ZM182.448 424.804V421.666L191.658 414.678C192.642 413.913 193.453 413.226 194.091 412.616C194.737 412.001 195.22 411.373 195.539 410.732C195.858 410.091 196.018 409.35 196.018 408.51C196.018 407.557 195.805 406.664 195.38 405.831C194.954 404.989 194.374 404.259 193.639 403.64C192.903 403.012 192.075 402.544 191.153 402.237C190.179 401.912 189.328 401.839 188.602 402.017C187.875 402.195 187.317 402.602 186.927 403.238C186.537 403.874 186.342 404.705 186.342 405.733L182.422 404.426C182.422 402.679 182.803 401.279 183.565 400.226C184.327 399.172 185.372 398.507 186.701 398.231C188.03 397.946 189.541 398.085 191.233 398.649C192.943 399.219 194.449 400.081 195.752 401.234C197.063 402.381 198.087 403.694 198.822 405.172C199.557 406.64 199.925 408.145 199.925 409.686C199.925 410.751 199.735 411.729 199.354 412.62C198.981 413.514 198.33 414.431 197.4 415.373C196.47 416.305 195.176 417.382 193.519 418.604L188.11 422.769V422.979L200.364 427.064V430.776L182.448 424.804ZM218.239 431.355V429.842C218.239 428.759 218.452 427.839 218.877 427.085C219.311 426.323 219.94 425.809 220.764 425.542C221.597 425.269 222.603 425.329 223.781 425.721C224.986 426.123 225.996 426.731 226.811 427.544C227.626 428.357 228.242 429.286 228.659 430.331C229.084 431.379 229.297 432.444 229.297 433.528V435.041C229.297 436.124 229.084 437.048 228.659 437.812C228.233 438.567 227.609 439.083 226.785 439.359C225.969 439.629 224.968 439.566 223.781 439.17C222.585 438.772 221.575 438.164 220.751 437.348C219.927 436.522 219.302 435.59 218.877 434.552C218.452 433.504 218.239 432.438 218.239 431.355ZM221.336 430.874V432.387C221.336 433.19 221.517 433.979 221.88 434.754C222.244 435.529 222.877 436.067 223.781 436.368C224.676 436.667 225.301 436.548 225.655 436.012C226.009 435.477 226.187 434.807 226.187 434.004V432.491C226.187 431.688 226.014 430.902 225.668 430.133C225.332 429.367 224.702 428.83 223.781 428.523C222.895 428.228 222.266 428.345 221.894 428.875C221.522 429.405 221.336 430.071 221.336 430.874ZM204.55 410.373V408.86C204.55 407.777 204.762 406.853 205.188 406.089C205.622 405.327 206.251 404.813 207.075 404.546C207.908 404.282 208.913 404.347 210.092 404.739C211.297 405.141 212.307 405.749 213.122 406.562C213.937 407.375 214.553 408.305 214.969 409.349C215.386 410.394 215.594 411.458 215.594 412.541V414.054C215.594 415.138 215.381 416.062 214.956 416.826C214.54 417.584 213.92 418.101 213.096 418.377C212.28 418.647 211.279 418.584 210.092 418.188C208.887 417.787 207.872 417.178 207.048 416.361C206.233 415.539 205.613 414.608 205.188 413.57C204.762 412.522 204.55 411.456 204.55 410.373ZM207.66 409.897V411.41C207.66 412.213 207.837 413 208.191 413.772C208.555 414.547 209.188 415.085 210.092 415.387C210.978 415.682 211.598 415.562 211.953 415.026C212.316 414.493 212.497 413.825 212.497 413.022V411.509C212.497 410.706 212.325 409.92 211.979 409.151C211.634 408.382 211.004 407.845 210.092 407.541C209.206 407.246 208.577 407.363 208.205 407.893C207.841 408.426 207.66 409.093 207.66 409.897ZM205.812 432.592L224.525 410.139L227.702 411.198L208.989 433.651L205.812 432.592Z" fill="#1C1817"/>
<path d="M144.601 441.604C141.884 440.698 140.701 438.795 140.701 437.024V436.794L141.738 437.139V437.309C141.738 438.74 142.454 439.872 144.63 440.597C146.251 441.138 147.01 440.821 147.01 439.636C147.01 438.481 146.514 437.884 145.039 437.054L143.345 436.089C141.811 435.239 140.759 434.15 140.759 432.487C140.759 430.994 141.928 430.09 144.25 430.864C146.791 431.711 147.901 433.713 147.901 435.391V435.591L146.864 435.246V435.076C146.864 433.66 146.163 432.518 144.236 431.875C142.614 431.335 141.811 431.637 141.811 432.761C141.811 433.931 142.351 434.449 143.783 435.281L145.477 436.261C147.098 437.186 148.062 438.308 148.062 439.925C148.062 441.495 146.908 442.373 144.601 441.604ZM151.319 443.843C150.004 443.405 149.011 442.366 149.011 441.088C149.011 439.764 149.946 439.49 151.523 439.785L154.065 440.263V439.709C154.065 438.369 153.524 437.65 152.166 437.197C150.851 436.759 150.238 437.094 150.238 438.31V438.541L149.23 438.205V438.082C149.23 436.496 150.384 435.618 152.254 436.241C154.181 436.884 155.058 438.485 155.058 440.178V444.935L154.108 444.619V443.218L154.035 443.178C153.612 443.914 152.692 444.301 151.319 443.843ZM150.034 441.352C150.034 442.137 150.501 442.647 151.611 443.017C152.852 443.43 154.065 443.157 154.065 441.356V441.094L151.611 440.646C150.457 440.43 150.034 440.536 150.034 441.352ZM157.716 445.821L156.664 445.471V435.156L157.716 435.506V445.821ZM162.37 447.527C160.15 446.787 158.996 444.755 158.996 442.445C158.996 440.136 160.296 438.922 162.355 439.609C164.093 440.188 165.525 441.774 165.525 444.021C165.525 444.375 165.496 444.704 165.452 444.905L159.989 443.084C160.033 444.777 160.661 445.972 162.385 446.546C163.845 447.033 164.429 446.535 164.429 445.611V445.519L165.466 445.865V445.972C165.466 447.435 164.21 448.14 162.37 447.527ZM162.326 440.553C160.72 440.018 160.077 440.774 159.989 442.284L164.532 443.798C164.59 442.016 163.743 441.026 162.326 440.553ZM169.869 450.026C167.897 449.369 166.816 448.131 166.816 446.361V446.33L167.838 446.671V446.855C167.838 447.902 168.247 448.547 169.883 449.092C171.227 449.54 171.577 449.256 171.577 448.487C171.577 447.717 171.125 447.289 170.029 446.708L168.832 446.093C167.663 445.473 166.816 444.621 166.816 443.282C166.816 441.973 167.868 441.446 169.576 442.016C171.227 442.566 172.439 443.863 172.439 445.572V445.649L171.431 445.313V445.19C171.431 444.281 171.095 443.476 169.547 442.96C168.233 442.522 167.824 442.832 167.824 443.602C167.824 444.372 168.189 444.755 169.27 445.331L170.497 445.986C171.753 446.651 172.585 447.514 172.585 448.776C172.585 450.131 171.534 450.581 169.869 450.026ZM179.551 452.422C177.565 451.76 176.425 449.995 176.425 447.84C176.425 445.684 177.55 444.674 179.566 445.345C180.836 445.769 181.8 446.752 182.121 447.829L182.18 447.849V446.371L183.115 446.682V453.964C183.115 456.027 181.859 456.64 179.96 456.007C178.12 455.394 176.82 453.944 176.82 452.189L177.857 452.535C177.857 453.782 178.456 454.52 179.975 455.027C181.523 455.543 182.063 455.138 182.063 453.614V451.674L182.048 451.669C181.713 452.435 180.807 452.841 179.551 452.422ZM177.477 448.19C177.477 450.207 178.397 451.083 179.799 451.551C181.099 451.984 182.063 451.52 182.063 449.95V449.488C182.063 447.918 181.085 446.806 179.741 446.358C178.368 445.901 177.477 446.189 177.477 448.19ZM185.799 455.182L184.748 454.832V447.134L185.697 447.451V448.729L185.77 448.753C186.004 448.123 186.705 447.725 187.771 448.08C189.261 448.577 189.83 449.891 189.83 451.199V451.63L188.779 451.28V451.018C188.779 449.833 188.428 449.254 187.391 448.908C186.267 448.533 185.799 448.917 185.799 450.148V455.182ZM194.108 458.106C191.99 457.4 190.603 455.29 190.603 452.981C190.603 450.672 191.99 449.487 194.108 450.193C196.211 450.894 197.555 452.989 197.555 455.298C197.555 457.608 196.211 458.807 194.108 458.106ZM194.108 457.121C195.846 457.7 196.532 456.851 196.532 454.958C196.532 453.064 195.846 451.773 194.108 451.194C192.341 450.604 191.64 451.433 191.64 453.327C191.64 455.22 192.341 456.532 194.108 457.121ZM201.125 460.291L199.752 459.833L197.897 451.61L199.007 451.98L200.147 457.317L200.439 459.062L200.526 459.091L201.008 457.604L202.659 453.197L204.046 453.66L205.726 459.177L206.179 460.975L206.266 461.004L206.558 459.454L207.698 454.877L208.778 455.237L206.923 462.224L205.551 461.766L203.929 456.423L203.389 454.441L203.301 454.412L202.761 456.033L201.125 460.291ZM212.467 464.087C211.138 463.644 210.363 462.832 210.363 461.215V456.72L209.151 456.316V455.361L210.378 455.77L210.626 453.913L211.415 454.176V456.116L213.693 456.875V457.83L211.415 457.07V461.627C211.415 462.52 211.809 462.852 212.744 463.163L213.693 463.48V464.373C213.445 464.336 212.992 464.262 212.467 464.087ZM215.837 465.195L214.785 464.844V454.53L215.837 454.88V459.006L215.895 459.026C216.173 458.394 216.918 457.796 218.378 458.283C220.262 458.911 221.065 460.503 221.065 462.242V466.938L220.028 466.592V462.174C220.028 460.526 219.503 459.628 218.042 459.141C216.596 458.659 215.837 459.114 215.837 460.823V465.195Z" fill="#1C1817"/>
<path d="M52.9113 153.247C52.8421 152.577 52.5569 151.981 52.0555 151.458C51.5542 150.931 50.9231 150.541 50.1624 150.287C49.6179 150.106 49.1468 150.04 48.7491 150.09C48.3515 150.135 48.0425 150.278 47.822 150.519C47.6059 150.757 47.4979 151.074 47.4979 151.47C47.4979 151.803 47.5714 152.114 47.7183 152.404C47.8696 152.696 48.0662 152.965 48.3083 153.209C48.5546 153.451 48.8183 153.673 49.0992 153.876C49.3802 154.075 49.6503 154.251 49.9096 154.406L51.2062 155.194C51.6298 155.444 52.0642 155.737 52.5093 156.072C52.9545 156.407 53.3673 156.791 53.7476 157.223C54.128 157.655 54.4348 158.135 54.6682 158.664C54.9059 159.194 55.0248 159.774 55.0248 160.403C55.0248 161.195 54.8303 161.834 54.4413 162.32C54.0566 162.807 53.4969 163.105 52.7622 163.216C52.0318 163.328 51.1479 163.211 50.1106 162.865C49.1165 162.534 48.2564 162.081 47.5303 161.506C46.8042 160.931 46.2358 160.27 45.8252 159.523C45.4146 158.771 45.1877 157.967 45.1445 157.109L47.1543 157.779C47.1932 158.298 47.3488 158.771 47.6211 159.199C47.8977 159.624 48.2499 159.99 48.6778 160.296C49.11 160.6 49.5833 160.837 50.0976 161.009C50.6638 161.197 51.1673 161.272 51.6082 161.232C52.0534 161.189 52.4035 161.041 52.6585 160.789C52.9135 160.533 53.041 160.177 53.041 159.721C53.041 159.306 52.9286 158.929 52.7038 158.59C52.4834 158.253 52.183 157.934 51.8027 157.634C51.4267 157.335 51.0009 157.041 50.5255 156.75L48.9566 155.776C47.8934 155.117 47.0505 154.387 46.4282 153.587C45.8101 152.789 45.5011 151.902 45.5011 150.927C45.5011 150.121 45.7085 149.486 46.1235 149.023C46.5384 148.56 47.1003 148.28 47.8091 148.184C48.5179 148.083 49.3175 148.181 50.2078 148.478C51.1068 148.778 51.8999 149.208 52.5871 149.77C53.2787 150.333 53.8233 150.972 54.2209 151.688C54.6185 152.399 54.826 153.134 54.8433 153.891L52.9113 153.247ZM60.1611 166.215C59.53 166.005 58.9595 165.692 58.4495 165.276C57.9395 164.855 57.5354 164.358 57.2372 163.785C56.9433 163.213 56.7963 162.583 56.7963 161.895C56.7963 161.303 56.9044 160.852 57.1205 160.541C57.3366 160.23 57.6283 160.025 57.9957 159.924C58.3631 159.823 58.7737 159.791 59.2275 159.829C59.6813 159.866 60.1438 159.934 60.6149 160.031C61.2113 160.157 61.6954 160.259 62.0671 160.338C62.4388 160.412 62.7089 160.422 62.8775 160.369C63.046 160.316 63.1303 160.166 63.1303 159.92V159.872C63.1303 159.275 62.9704 158.76 62.6506 158.325C62.3351 157.892 61.864 157.571 61.2373 157.362C60.5846 157.144 60.0703 157.125 59.6943 157.305C59.3226 157.482 59.0654 157.731 58.9228 158.053L57.101 157.008C57.3171 156.442 57.6326 156.033 58.0476 155.779C58.4668 155.523 58.9487 155.396 59.4933 155.4C60.0379 155.399 60.6106 155.499 61.2113 155.699C61.609 155.832 62.0304 156.023 62.4755 156.271C62.925 156.517 63.3443 156.834 63.7333 157.223C64.1266 157.614 64.4486 158.093 64.6992 158.659C64.9499 159.221 65.0753 159.885 65.0753 160.65V167.621L63.1822 166.99V165.555L63.1044 165.529C62.9791 165.751 62.791 165.948 62.5404 166.12C62.2897 166.291 61.9677 166.396 61.5744 166.433C61.1811 166.471 60.71 166.398 60.1611 166.215ZM60.5825 164.715C61.1184 164.894 61.5765 164.935 61.9569 164.839C62.3415 164.744 62.6333 164.549 62.8321 164.256C63.0352 163.959 63.1368 163.603 63.1368 163.189V161.836C63.0677 161.885 62.9337 161.909 62.7349 161.907C62.5404 161.901 62.3178 161.879 62.0671 161.841C61.8164 161.799 61.5722 161.756 61.3345 161.713C61.0968 161.666 60.898 161.627 60.7381 161.596C60.362 161.521 60.0184 161.491 59.7072 161.506C59.4004 161.522 59.154 161.611 58.9682 161.772C58.7866 161.93 58.6959 162.191 58.6959 162.556C58.6959 163.061 58.8731 163.503 59.2275 163.881C59.5819 164.254 60.0336 164.532 60.5825 164.715ZM69.5956 155.132V169.128L67.6572 168.481V154.486L69.5956 155.132ZM76.4953 171.639C75.5142 171.312 74.6692 170.81 73.9604 170.131C73.2559 169.45 72.7113 168.642 72.3266 167.708C71.9463 166.77 71.7561 165.757 71.7561 164.668C71.7561 163.593 71.9463 162.708 72.3266 162.015C72.7113 161.323 73.2472 160.862 73.9345 160.631C74.626 160.401 75.4342 160.44 76.3591 160.749C76.921 160.936 77.4656 161.215 77.9929 161.587C78.5202 161.959 78.9935 162.424 79.4127 162.983C79.8319 163.542 80.1626 164.196 80.4046 164.947C80.6467 165.693 80.7677 166.542 80.7677 167.494V168.218L72.8518 165.58V164.049L78.8681 166.054C78.8681 165.517 78.7644 165.006 78.5569 164.522C78.3495 164.034 78.0577 163.606 77.6817 163.24C77.31 162.874 76.8735 162.608 76.3721 162.441C75.8275 162.259 75.3521 162.242 74.9458 162.389C74.5439 162.533 74.2327 162.794 74.0123 163.171C73.7962 163.546 73.6881 163.995 73.6881 164.519V165.715C73.6881 166.417 73.8048 167.052 74.0382 167.622C74.2759 168.193 74.6065 168.679 75.0301 169.08C75.4537 169.477 75.9486 169.769 76.5147 169.958C76.8821 170.08 77.2171 170.137 77.5196 170.129C77.8222 170.116 78.0837 170.034 78.3041 169.885C78.5245 169.735 78.6931 169.515 78.8098 169.226L80.6445 170.186C80.4975 170.707 80.2339 171.118 79.8536 171.419C79.4775 171.718 79.0043 171.89 78.4338 171.937C77.8676 171.981 77.2214 171.881 76.4953 171.639ZM90.3805 168.122L88.6236 167.864C88.5501 167.603 88.4334 167.338 88.2735 167.071C88.1179 166.805 87.9061 166.559 87.6382 166.333C87.3702 166.107 87.0352 165.927 86.6333 165.793C86.0844 165.61 85.6262 165.587 85.2589 165.724C84.8915 165.857 84.7078 166.126 84.7078 166.532C84.7078 166.882 84.831 167.206 85.0773 167.502C85.3237 167.798 85.7213 168.106 86.2702 168.426L87.8521 169.336C88.7684 169.865 89.4513 170.436 89.9008 171.051C90.3503 171.665 90.575 172.344 90.575 173.086C90.575 173.715 90.4021 174.218 90.0564 174.595C89.7149 174.968 89.2373 175.192 88.6236 175.265C88.0142 175.34 87.3075 175.243 86.5036 174.975C85.3885 174.604 84.4787 174.05 83.7742 173.314C83.0697 172.573 82.6375 171.712 82.4776 170.729L84.3512 171.053C84.4679 171.607 84.7078 172.076 85.0709 172.461C85.4339 172.842 85.9072 173.13 86.4907 173.324C87.126 173.536 87.6338 173.566 88.0142 173.415C88.3945 173.259 88.5847 172.979 88.5847 172.573C88.5847 172.245 88.468 171.931 88.2346 171.63C88.0055 171.33 87.6533 171.044 87.1779 170.772L85.4923 169.82C84.563 169.287 83.8758 168.703 83.4306 168.067C82.9898 167.433 82.7693 166.742 82.7693 165.995C82.7693 165.375 82.9336 164.888 83.2621 164.533C83.5905 164.177 84.0444 163.966 84.6235 163.9C85.2027 163.829 85.8661 163.918 86.6138 164.167C87.69 164.526 88.5372 165.054 89.1552 165.752C89.7733 166.446 90.1817 167.235 90.3805 168.122ZM101.732 180.052C100.799 179.741 99.9842 179.243 99.2884 178.56C98.5925 177.877 98.0522 177.066 97.6676 176.127C97.2829 175.188 97.0906 174.176 97.0906 173.092C97.0906 172.003 97.2829 171.115 97.6676 170.428C98.0522 169.741 98.5925 169.287 99.2884 169.068C99.9842 168.849 100.799 168.895 101.732 169.206C102.666 169.518 103.481 170.015 104.177 170.698C104.872 171.381 105.413 172.194 105.797 173.138C106.182 174.081 106.374 175.098 106.374 176.187C106.374 177.271 106.182 178.154 105.797 178.837C105.413 179.52 104.872 179.971 104.177 180.19C103.481 180.409 102.666 180.363 101.732 180.052ZM101.739 178.339C102.344 178.54 102.845 178.539 103.243 178.334C103.641 178.13 103.935 177.779 104.125 177.282C104.319 176.786 104.417 176.201 104.417 175.527C104.417 174.857 104.319 174.21 104.125 173.585C103.935 172.956 103.641 172.405 103.243 171.931C102.845 171.457 102.344 171.119 101.739 170.917C101.13 170.714 100.624 170.716 100.222 170.924C99.8243 171.133 99.5282 171.488 99.3337 171.988C99.1436 172.485 99.0485 173.068 99.0485 173.738C99.0485 174.412 99.1436 175.061 99.3337 175.685C99.5282 176.31 99.8243 176.858 100.222 177.327C100.624 177.798 101.13 178.135 101.739 178.339ZM116.718 174.338L113.107 183.631L111.033 182.94L107.415 171.237L109.496 171.931L112.018 180.849L112.122 180.884L114.637 173.645L116.718 174.338ZM122.493 186.972C121.512 186.645 120.667 186.142 119.958 185.464C119.254 184.783 118.709 183.975 118.324 183.04C117.944 182.102 117.754 181.089 117.754 180C117.754 178.925 117.944 178.041 118.324 177.348C118.709 176.656 119.245 176.194 119.932 175.963C120.624 175.734 121.432 175.773 122.357 176.081C122.919 176.269 123.463 176.548 123.991 176.92C124.518 177.291 124.991 177.757 125.41 178.316C125.83 178.874 126.16 179.529 126.402 180.279C126.644 181.025 126.765 181.874 126.765 182.826V183.551L118.85 180.912V179.381L124.866 181.387C124.866 180.849 124.762 180.339 124.555 179.855C124.347 179.367 124.056 178.939 123.68 178.572C123.308 178.207 122.871 177.941 122.37 177.774C121.825 177.592 121.35 177.575 120.944 177.722C120.542 177.866 120.23 178.126 120.01 178.504C119.794 178.878 119.686 179.328 119.686 179.852V181.047C119.686 181.749 119.803 182.385 120.036 182.955C120.274 183.526 120.604 184.012 121.028 184.413C121.451 184.809 121.946 185.102 122.513 185.29C122.88 185.413 123.215 185.47 123.517 185.461C123.82 185.448 124.081 185.367 124.302 185.217C124.522 185.067 124.691 184.848 124.808 184.559L126.642 185.519C126.495 186.039 126.232 186.45 125.851 186.752C125.475 187.05 125.002 187.223 124.432 187.27C123.865 187.313 123.219 187.214 122.493 186.972ZM128.916 188.901V178.404L130.79 179.029V180.696L130.894 180.731C131.075 180.227 131.395 179.889 131.853 179.718C132.316 179.544 132.839 179.555 133.422 179.749C133.543 179.789 133.686 179.842 133.85 179.905C134.018 179.971 134.15 180.026 134.245 180.071V182.026C134.168 181.977 134.029 181.906 133.83 181.812C133.632 181.714 133.433 181.632 133.234 181.566C132.776 181.413 132.367 181.379 132.009 181.465C131.654 181.547 131.373 181.734 131.166 182.024C130.958 182.311 130.855 182.682 130.855 183.137V189.547L128.916 188.901ZM144.745 183.681L141.134 192.974L139.059 192.282L135.442 180.579L137.523 181.273L140.045 190.191L140.148 190.226L142.664 182.987L144.745 183.681ZM146.567 194.785V184.288L148.505 184.934V195.431L146.567 194.785ZM147.546 182.995C147.208 182.882 146.919 182.667 146.677 182.35C146.439 182.029 146.32 181.702 146.32 181.37C146.32 181.033 146.439 180.785 146.677 180.627C146.919 180.467 147.208 180.442 147.546 180.555C147.883 180.667 148.17 180.884 148.408 181.204C148.65 181.522 148.771 181.849 148.771 182.187C148.771 182.519 148.65 182.766 148.408 182.927C148.17 183.084 147.883 183.107 147.546 182.995ZM155.405 197.942C154.424 197.615 153.579 197.113 152.87 196.435C152.165 195.753 151.621 194.945 151.236 194.011C150.856 193.073 150.666 192.06 150.666 190.971C150.666 189.896 150.856 189.011 151.236 188.318C151.621 187.626 152.157 187.165 152.844 186.934C153.535 186.704 154.344 186.743 155.269 187.052C155.83 187.239 156.375 187.519 156.902 187.89C157.43 188.262 157.903 188.727 158.322 189.286C158.741 189.845 159.072 190.5 159.314 191.25C159.556 191.996 159.677 192.845 159.677 193.797V194.521L151.761 191.883V190.352L157.778 192.357C157.778 191.82 157.674 191.309 157.466 190.825C157.259 190.337 156.967 189.91 156.591 189.543C156.219 189.177 155.783 188.911 155.282 188.744C154.737 188.563 154.261 188.545 153.855 188.692C153.453 188.836 153.142 189.097 152.922 189.475C152.706 189.849 152.597 190.298 152.597 190.822V192.018C152.597 192.72 152.714 193.355 152.948 193.925C153.185 194.496 153.516 194.983 153.939 195.383C154.363 195.78 154.858 196.072 155.424 196.261C155.792 196.383 156.126 196.44 156.429 196.432C156.732 196.419 156.993 196.337 157.213 196.188C157.434 196.038 157.602 195.819 157.719 195.529L159.554 196.489C159.407 197.01 159.143 197.421 158.763 197.722C158.387 198.021 157.914 198.193 157.343 198.24C156.777 198.284 156.131 198.184 155.405 197.942ZM163.969 200.585L161.039 189.112L163.042 189.78L164.993 198.139L165.09 198.171L167.048 191.115L169.052 191.783L170.997 200.106L171.094 200.138L173.032 193.11L175.036 193.777L172.112 203.3L170.134 202.64L168.112 194.388L167.963 194.338L165.94 201.242L163.969 200.585Z" fill="#1C1817"/>
<line y1="-0.481101" x2="288.66" y2="-0.481101" transform="matrix(0.948683 0.316228 0 1 44.2109 193.76)" stroke="#8C8480" stroke-opacity="0.12" stroke-width="0.962201"/>
<path opacity="0.26" d="M183.053 278.21C183.016 274.609 185.948 272.763 189.335 274.255L202.944 280.249C206.24 281.701 208.558 285.7 207.988 288.949L200.355 332.423C199.834 335.394 197.071 336.641 194.063 335.262L188.574 332.745C185.726 331.44 183.572 328.194 183.541 325.162L183.053 278.21Z" fill="#594FFE"/>
<path opacity="0.26" d="M155.234 270.824C154.634 267.092 157.084 264.612 160.481 265.512L174.132 269.129C177.437 270.005 180.229 273.714 180.206 277.198L179.895 323.808C179.873 326.994 177.488 328.818 174.463 327.963L168.941 326.401C166.077 325.591 163.556 322.633 163.051 319.49L155.234 270.824Z" fill="#594FFE"/>
<path opacity="0.26" d="M126.737 270.97C125.335 267.233 126.943 263.941 130.183 263.918L143.2 263.826C146.352 263.803 149.705 266.893 150.494 270.547L161.055 319.437C161.776 322.779 160.073 325.366 157.175 325.33L151.887 325.265C149.144 325.231 146.208 322.85 145.027 319.703L126.737 270.97Z" fill="#594FFE"/>
<path opacity="0.26" d="M101.214 279.434C99.146 275.895 99.8902 272.03 102.809 271.155L114.536 267.641C117.375 266.79 121.065 269.141 122.563 272.754L142.594 321.103C143.963 324.407 142.982 327.56 140.359 328.283L135.573 329.603C133.091 330.288 129.929 328.569 128.187 325.588L101.214 279.434Z" fill="#594FFE"/>
<path opacity="0.26" d="M80.4092 294.578C77.7656 291.436 77.5763 287.19 80.0037 285.484L89.7579 278.626C92.1197 276.965 95.956 278.424 98.1028 281.798L126.828 326.947C128.791 330.033 128.609 333.598 126.414 335.066L122.407 337.745C120.329 339.135 117.108 338.195 114.882 335.549L80.4092 294.578Z" fill="#594FFE"/>
<path opacity="0.26" d="M64.1166 314.87C61.0794 312.237 60.0557 307.851 61.9237 305.474L69.4302 295.921C71.2478 293.608 75.0333 294.191 77.6648 297.188L112.875 337.295C115.281 340.037 115.831 343.803 114.126 345.875L111.015 349.655C109.402 351.615 106.28 351.422 103.722 349.205L64.1166 314.87Z" fill="#594FFE"/>
<path opacity="0.26" d="M54.1196 341.321C50.8016 339.413 48.884 335.107 50.0119 332.097L54.5443 320.003C55.6418 317.075 59.1608 316.628 62.1992 319.031L102.853 351.182C105.632 353.38 106.984 357.169 105.932 359.813L104.013 364.638C103.017 367.141 100.181 367.811 97.3869 366.204L54.1196 341.321Z" fill="#594FFE"/>
<path opacity="0.26" d="M51.2124 371.632C47.8082 370.507 45.1539 366.507 45.5266 363.065L47.0243 349.231C47.3869 345.882 50.4674 344.492 53.7252 346.208L97.3156 369.17C100.295 370.74 102.328 374.348 101.946 377.388L101.248 382.936C100.886 385.813 98.4698 387.257 95.6028 386.309L51.2124 371.632Z" fill="#594FFE"/>
<path opacity="0.26" d="M213.207 292.305C214.046 289.107 217.568 288.347 220.753 290.677L233.549 300.039C236.648 302.306 238.101 306.537 236.711 309.243L218.114 345.447C216.842 347.921 213.644 348.201 210.829 346.084L205.691 342.22C203.027 340.217 201.561 336.701 202.268 334.008L213.207 292.305Z" fill="#594FFE"/>
<path opacity="0.26" d="M240.959 312.099C242.533 309.442 246.382 309.693 249.206 312.639L260.553 324.475C263.3 327.341 263.9 331.539 261.857 333.607L234.53 361.276C232.663 363.167 229.257 362.568 226.773 359.913L222.24 355.066C219.889 352.553 219.122 348.996 220.446 346.758L240.959 312.099Z" fill="#594FFE"/>
<path opacity="0.26" d="M266.314 338.483C268.535 336.504 272.506 337.751 274.821 341.153L284.123 354.826C286.375 358.137 286.093 362.08 283.509 363.403L248.936 381.106C246.573 382.316 243.14 380.875 241.118 377.823L237.428 372.254C235.514 369.366 235.482 365.958 237.352 364.291L266.314 338.483Z" fill="#594FFE"/>
<path opacity="0.26" d="M286.833 366.513C289.546 365.251 293.444 367.355 295.183 371.02L302.167 385.746C303.859 389.312 302.777 392.835 299.816 393.411L260.185 401.111C257.476 401.638 254.18 399.488 252.677 396.214L249.935 390.241C248.513 387.142 249.159 384.029 251.445 382.966L286.833 366.513Z" fill="#594FFE"/>
<path opacity="0.26" d="M300.799 398.896C303.912 398.483 307.531 401.416 308.55 405.179L312.645 420.303C313.637 423.964 311.738 426.85 308.514 426.579L265.386 422.954C262.438 422.706 259.459 419.892 258.601 416.543L257.035 410.433C256.223 407.264 257.577 404.632 260.2 404.284L300.799 398.896Z" fill="#594FFE"/>
<path opacity="0.26" d="M309.781 431.218C313.125 431.658 316.281 435.253 316.541 438.918L317.588 453.644C317.842 457.209 315.239 459.318 311.927 458.231L267.609 443.684C264.58 442.69 262.068 439.369 261.887 436.122L261.556 430.195C261.385 427.121 263.364 425.099 266.18 425.47L309.781 431.218Z" fill="#594FFE"/>
<path d="M183.053 278.21C183.016 274.609 185.948 272.763 189.335 274.255L202.944 280.249C206.24 281.701 208.558 285.7 207.988 288.949L200.355 332.423C199.834 335.394 197.071 336.641 194.063 335.262L188.574 332.745C185.726 331.44 183.572 328.194 183.541 325.162L183.053 278.21Z" fill="#FE5401"/>
<path d="M155.234 270.824C154.634 267.092 157.084 264.612 160.481 265.512L174.132 269.129C177.437 270.005 180.229 273.714 180.206 277.198L179.895 323.808C179.873 326.994 177.488 328.818 174.463 327.963L168.941 326.401C166.077 325.591 163.556 322.633 163.051 319.49L155.234 270.824Z" fill="#FE5401"/>
<path d="M126.737 270.97C125.335 267.233 126.943 263.941 130.183 263.918L143.2 263.826C146.352 263.803 149.705 266.893 150.494 270.547L161.055 319.437C161.776 322.779 160.073 325.366 157.175 325.33L151.887 325.265C149.144 325.231 146.208 322.85 145.027 319.703L126.737 270.97Z" fill="#FE5401"/>
<path d="M101.214 279.434C99.146 275.895 99.8902 272.03 102.809 271.155L114.536 267.641C117.375 266.79 121.065 269.141 122.563 272.754L142.594 321.103C143.963 324.407 142.982 327.56 140.359 328.283L135.573 329.603C133.091 330.288 129.929 328.569 128.187 325.588L101.214 279.434Z" fill="#FE5401"/>
<path d="M80.4092 294.578C77.7656 291.436 77.5763 287.19 80.0037 285.484L89.7579 278.626C92.1197 276.965 95.956 278.424 98.1028 281.798L126.828 326.947C128.791 330.033 128.609 333.598 126.414 335.066L122.407 337.745C120.329 339.135 117.108 338.195 114.882 335.549L80.4092 294.578Z" fill="#FE5401"/>
<path d="M64.1166 314.87C61.0794 312.237 60.0557 307.851 61.9237 305.474L69.4302 295.921C71.2478 293.608 75.0333 294.191 77.6648 297.188L112.875 337.295C115.281 340.037 115.831 343.803 114.126 345.875L111.015 349.655C109.402 351.615 106.28 351.422 103.722 349.205L64.1166 314.87Z" fill="#FE5401"/>
<path d="M54.1196 341.321C50.8016 339.413 48.884 335.107 50.0119 332.097L54.5443 320.003C55.6418 317.075 59.1608 316.628 62.1992 319.031L102.853 351.182C105.632 353.38 106.984 357.169 105.932 359.813L104.013 364.638C103.017 367.141 100.181 367.811 97.3869 366.204L54.1196 341.321Z" fill="#FE5401"/>
<path d="M51.2124 371.632C47.8082 370.507 45.1539 366.507 45.5266 363.065L47.0243 349.231C47.3869 345.882 50.4674 344.492 53.7252 346.208L97.3156 369.17C100.295 370.74 102.328 374.348 101.946 377.388L101.248 382.936C100.886 385.813 98.4698 387.257 95.6028 386.309L51.2124 371.632Z" fill="#FE5401"/>
<path d="M213.207 292.305C214.046 289.107 217.568 288.347 220.753 290.677L233.549 300.039C236.648 302.306 238.101 306.537 236.711 309.243L218.114 345.447C216.842 347.921 213.644 348.201 210.829 346.084L205.691 342.22C203.027 340.217 201.561 336.701 202.268 334.008L213.207 292.305Z" fill="#FE5401"/>
<path d="M240.959 312.099C242.533 309.442 246.382 309.693 249.206 312.639L260.553 324.475C263.3 327.341 263.9 331.539 261.857 333.607L234.53 361.276C232.663 363.167 229.257 362.568 226.773 359.913L222.24 355.066C219.889 352.553 219.122 348.996 220.446 346.758L240.959 312.099Z" fill="#FE5401"/>
<path d="M266.314 338.483C268.535 336.504 272.506 337.751 274.821 341.153L284.123 354.826C286.375 358.137 286.093 362.08 283.509 363.403L248.936 381.106C246.573 382.316 243.14 380.875 241.118 377.823L237.428 372.254C235.514 369.366 235.482 365.958 237.352 364.291L266.314 338.483Z" fill="#F8F8F8"/>
<path d="M286.833 366.513C289.546 365.251 293.444 367.355 295.183 371.02L302.167 385.746C303.859 389.312 302.777 392.835 299.816 393.411L260.185 401.111C257.476 401.638 254.18 399.488 252.677 396.214L249.935 390.241C248.513 387.142 249.159 384.029 251.445 382.966L286.833 366.513Z" fill="#F8F8F8"/>
<path d="M300.799 398.896C303.912 398.483 307.531 401.416 308.55 405.179L312.645 420.303C313.637 423.964 311.738 426.85 308.514 426.579L265.386 422.954C262.438 422.706 259.459 419.892 258.601 416.543L257.035 410.433C256.223 407.264 257.577 404.632 260.2 404.284L300.799 398.896Z" fill="#F8F8F8"/>
<path d="M309.781 431.218C313.125 431.658 316.281 435.253 316.541 438.918L317.588 453.644C317.842 457.209 315.239 459.318 311.927 458.231L267.609 443.684C264.58 442.69 262.068 439.369 261.887 436.122L261.556 430.195C261.385 427.121 263.364 425.099 266.18 425.47L309.781 431.218Z" fill="#F8F8F8"/>
<path d="M71.4557 444.825L72.9286 445.315L75.8746 451.524L75.999 451.565L78.945 447.321L80.4179 447.812L76.5799 453.115V457.729L75.2937 457.3V452.686L71.4557 444.825ZM84.0252 460.386C83.306 460.146 82.6749 459.755 82.1321 459.214C81.5927 458.673 81.1708 458.028 80.8666 457.277C80.5658 456.528 80.4153 455.72 80.4153 454.853C80.4153 453.978 80.5658 453.264 80.8666 452.712C81.1708 452.161 81.5927 451.795 82.1321 451.614C82.6749 451.434 83.306 451.464 84.0252 451.704C84.7443 451.944 85.3736 452.334 85.913 452.875C86.4559 453.416 86.8777 454.064 87.1785 454.816C87.4828 455.57 87.635 456.384 87.635 457.259C87.635 458.127 87.4828 458.834 87.1785 459.381C86.8777 459.93 86.4559 460.294 85.913 460.474C85.3736 460.655 84.7443 460.626 84.0252 460.386ZM84.0252 459.227C84.5715 459.409 85.021 459.411 85.3736 459.233C85.7263 459.056 85.9874 458.755 86.1568 458.33C86.3262 457.905 86.4109 457.412 86.4109 456.851C86.4109 456.29 86.3262 455.739 86.1568 455.197C85.9874 454.656 85.7263 454.177 85.3736 453.761C85.021 453.345 84.5715 453.045 84.0252 452.863C83.4788 452.681 83.0293 452.681 82.6767 452.862C82.324 453.043 82.0629 453.348 81.8935 453.776C81.7241 454.205 81.6394 454.699 81.6394 455.261C81.6394 455.822 81.7241 456.371 81.8935 456.909C82.0629 457.447 82.324 457.922 82.6767 458.334C83.0293 458.747 83.4788 459.045 84.0252 459.227ZM94.5239 460.277V455.313L95.7479 455.721V464.118L94.5239 463.71V462.289L94.4409 462.261C94.2542 462.626 93.9638 462.891 93.5696 463.059C93.1754 463.223 92.6775 463.204 92.0759 463.004C91.578 462.838 91.1354 462.575 90.7482 462.217C90.3609 461.854 90.0566 461.403 89.8353 460.863C89.614 460.319 89.5034 459.69 89.5034 458.975V453.64L90.7274 454.048V459.296C90.7274 459.908 90.8899 460.451 91.2149 460.924C91.5434 461.398 91.9618 461.719 92.4701 461.889C92.7744 461.99 93.0838 462.011 93.3985 461.952C93.7166 461.894 93.9828 461.731 94.1972 461.464C94.415 461.198 94.5239 460.802 94.5239 460.277ZM99.2825 454.1V455.084C99.2825 455.383 99.2307 455.685 99.127 455.989C99.0267 456.291 98.878 456.568 98.6809 456.819C98.4873 457.068 98.2522 457.263 97.9756 457.404L97.3117 456.614C97.5295 456.359 97.718 456.081 97.877 455.78C98.0395 455.477 98.1208 455.123 98.1208 454.719V453.713L99.2825 454.1ZM100.586 465.731V457.334L101.768 457.728V458.996L101.851 459.024C101.996 458.657 102.259 458.407 102.64 458.275C103.02 458.143 103.449 458.157 103.926 458.316C104.016 458.346 104.128 458.385 104.263 458.434C104.398 458.482 104.5 458.522 104.569 458.552V459.864C104.527 459.839 104.432 459.791 104.284 459.72C104.138 459.646 103.985 459.582 103.822 459.528C103.435 459.399 103.089 459.369 102.785 459.439C102.484 459.506 102.245 459.66 102.069 459.9C101.896 460.138 101.81 460.446 101.81 460.825V466.139L100.586 465.731ZM109.117 468.75C108.35 468.494 107.688 468.095 107.131 467.552C106.578 467.007 106.151 466.361 105.85 465.616C105.553 464.868 105.404 464.064 105.404 463.204C105.404 462.344 105.553 461.635 105.85 461.078C106.151 460.519 106.569 460.145 107.105 459.955C107.644 459.763 108.274 459.787 108.993 460.027C109.408 460.165 109.818 460.375 110.222 460.655C110.627 460.936 110.995 461.295 111.327 461.734C111.659 462.169 111.923 462.687 112.12 463.289C112.318 463.89 112.416 464.583 112.416 465.366V465.913L106.275 463.866V462.751L111.171 464.383C111.171 463.909 111.081 463.456 110.902 463.025C110.725 462.594 110.473 462.217 110.144 461.892C109.819 461.569 109.436 461.333 108.993 461.186C108.505 461.023 108.084 461.01 107.727 461.147C107.375 461.281 107.103 461.518 106.913 461.859C106.723 462.2 106.628 462.602 106.628 463.065V463.809C106.628 464.443 106.732 465.015 106.939 465.525C107.15 466.033 107.442 466.464 107.816 466.818C108.189 467.168 108.623 467.426 109.117 467.591C109.439 467.698 109.729 467.748 109.989 467.739C110.252 467.728 110.478 467.658 110.668 467.528C110.858 467.395 111.005 467.2 111.109 466.943L112.292 467.687C112.167 468.068 111.958 468.37 111.664 468.593C111.37 468.812 111.007 468.939 110.575 468.973C110.143 469.004 109.657 468.93 109.117 468.75ZM121.85 464.422V465.515L117.722 464.139V463.046L121.85 464.422ZM118.925 461.435L120.149 461.843V469.847C120.149 470.211 120.199 470.501 120.3 470.717C120.403 470.93 120.535 471.094 120.694 471.209C120.856 471.322 121.027 471.408 121.207 471.468C121.342 471.513 121.453 471.542 121.539 471.557C121.626 471.567 121.695 471.576 121.747 471.582L121.996 472.824C121.913 472.829 121.797 472.823 121.648 472.806C121.499 472.793 121.311 472.749 121.083 472.673C120.737 472.557 120.398 472.366 120.066 472.099C119.738 471.833 119.465 471.503 119.247 471.109C119.032 470.717 118.925 470.277 118.925 469.789V461.435ZM125.087 468.846V473.898L123.863 473.49V462.294L125.087 462.702V466.813L125.19 466.847C125.377 466.476 125.657 466.225 126.031 466.094C126.408 465.961 126.909 465.999 127.535 466.207C128.078 466.388 128.553 466.662 128.961 467.027C129.369 467.389 129.685 467.843 129.91 468.388C130.138 468.93 130.252 469.562 130.252 470.284V475.62L129.028 475.212V469.964C129.028 469.297 128.864 468.726 128.536 468.252C128.211 467.776 127.759 467.441 127.182 467.249C126.781 467.115 126.421 467.085 126.103 467.157C125.789 467.231 125.54 467.408 125.356 467.69C125.177 467.973 125.087 468.358 125.087 468.846ZM135.832 477.655C135.064 477.399 134.402 477 133.845 476.457C133.292 475.912 132.865 475.266 132.564 474.521C132.267 473.773 132.118 472.969 132.118 472.109C132.118 471.249 132.267 470.54 132.564 469.983C132.865 469.424 133.284 469.049 133.819 468.86C134.359 468.668 134.988 468.692 135.707 468.932C136.122 469.07 136.532 469.279 136.937 469.56C137.341 469.841 137.709 470.2 138.041 470.639C138.373 471.074 138.638 471.592 138.835 472.194C139.032 472.795 139.13 473.488 139.13 474.271V474.818L132.99 472.771V471.656L137.886 473.288C137.886 472.814 137.796 472.361 137.616 471.93C137.44 471.499 137.187 471.121 136.859 470.797C136.534 470.474 136.15 470.238 135.707 470.091C135.22 469.928 134.798 469.915 134.442 470.051C134.089 470.185 133.818 470.423 133.628 470.764C133.437 471.105 133.342 471.507 133.342 471.97V472.714C133.342 473.348 133.446 473.92 133.653 474.43C133.864 474.938 134.157 475.369 134.53 475.723C134.903 476.073 135.337 476.331 135.832 476.496C136.153 476.603 136.444 476.652 136.703 476.644C136.966 476.633 137.192 476.563 137.383 476.433C137.573 476.3 137.72 476.104 137.823 475.847L139.006 476.592C138.881 476.973 138.672 477.275 138.378 477.498C138.084 477.717 137.721 477.844 137.289 477.878C136.857 477.909 136.371 477.834 135.832 477.655ZM148.565 473.327V474.42L144.436 473.044V471.95L148.565 473.327ZM145.64 470.34L146.864 470.748V478.751C146.864 479.116 146.914 479.406 147.014 479.622C147.118 479.835 147.249 479.999 147.408 480.114C147.571 480.226 147.742 480.313 147.922 480.373C148.056 480.417 148.167 480.447 148.254 480.461C148.34 480.472 148.409 480.48 148.461 480.487L148.71 481.729C148.627 481.734 148.511 481.728 148.362 481.711C148.214 481.698 148.025 481.654 147.797 481.578C147.451 481.462 147.112 481.271 146.781 481.004C146.452 480.737 146.179 480.408 145.961 480.014C145.747 479.622 145.64 479.182 145.64 478.693V470.34ZM153.557 483.563C152.838 483.323 152.206 482.933 151.664 482.391C151.124 481.85 150.702 481.205 150.398 480.455C150.097 479.705 149.947 478.897 149.947 478.03C149.947 477.155 150.097 476.442 150.398 475.89C150.702 475.339 151.124 474.973 151.664 474.792C152.206 474.612 152.838 474.642 153.557 474.881C154.276 475.121 154.905 475.511 155.445 476.052C155.987 476.594 156.409 477.241 156.71 477.994C157.014 478.747 157.167 479.562 157.167 480.436C157.167 481.304 157.014 482.011 156.71 482.559C156.409 483.107 155.987 483.471 155.445 483.651C154.905 483.832 154.276 483.803 153.557 483.563ZM153.557 482.404C154.103 482.586 154.553 482.588 154.905 482.411C155.258 482.233 155.519 481.932 155.688 481.507C155.858 481.083 155.942 480.59 155.942 480.028C155.942 479.467 155.858 478.916 155.688 478.375C155.519 477.833 155.258 477.355 154.905 476.938C154.553 476.522 154.103 476.222 153.557 476.04C153.01 475.858 152.561 475.858 152.208 476.039C151.856 476.22 151.594 476.525 151.425 476.953C151.256 477.382 151.171 477.877 151.171 478.438C151.171 478.999 151.256 479.549 151.425 480.086C151.594 480.624 151.856 481.099 152.208 481.512C152.561 481.924 153.01 482.222 153.557 482.404ZM159.035 488.363V476.817L160.217 477.211V478.545L160.363 478.593C160.453 478.477 160.577 478.333 160.736 478.16C160.899 477.985 161.13 477.858 161.431 477.779C161.735 477.699 162.147 477.745 162.665 477.918C163.336 478.141 163.928 478.515 164.439 479.039C164.951 479.563 165.35 480.198 165.637 480.942C165.924 481.686 166.068 482.5 166.068 483.382C166.068 484.271 165.924 484.994 165.637 485.551C165.35 486.104 164.953 486.474 164.444 486.662C163.936 486.846 163.35 486.827 162.686 486.606C162.175 486.436 161.765 486.21 161.457 485.929C161.149 485.644 160.912 485.359 160.746 485.074C160.581 484.785 160.453 484.55 160.363 484.366L160.259 484.332V488.771L159.035 488.363ZM160.238 481.417C160.238 482.051 160.326 482.64 160.503 483.183C160.679 483.723 160.937 484.186 161.276 484.572C161.614 484.955 162.029 485.228 162.52 485.392C163.032 485.562 163.459 485.563 163.801 485.392C164.147 485.22 164.406 484.92 164.579 484.493C164.756 484.063 164.844 483.549 164.844 482.952C164.844 482.361 164.757 481.8 164.585 481.269C164.415 480.735 164.157 480.272 163.812 479.88C163.469 479.485 163.039 479.201 162.52 479.028C162.022 478.862 161.604 478.856 161.265 479.009C160.926 479.158 160.67 479.441 160.498 479.857C160.325 480.27 160.238 480.79 160.238 481.417ZM200.781 499.304C200.062 499.065 199.431 498.674 198.888 498.132C198.349 497.592 197.927 496.946 197.623 496.196C197.322 495.447 197.171 494.639 197.171 493.771C197.171 492.897 197.322 492.183 197.623 491.631C197.927 491.08 198.349 490.714 198.888 490.533C199.431 490.353 200.062 490.383 200.781 490.623C201.5 490.863 202.13 491.253 202.669 491.793C203.212 492.335 203.634 492.982 203.934 493.735C204.239 494.489 204.391 495.303 204.391 496.178C204.391 497.045 204.239 497.753 203.934 498.3C203.634 498.848 203.212 499.213 202.669 499.393C202.13 499.574 201.5 499.544 200.781 499.304ZM200.781 498.145C201.327 498.328 201.777 498.33 202.13 498.152C202.482 497.974 202.743 497.673 202.913 497.249C203.082 496.824 203.167 496.331 203.167 495.77C203.167 495.209 203.082 494.657 202.913 494.116C202.743 493.575 202.482 493.096 202.13 492.68C201.777 492.263 201.327 491.964 200.781 491.782C200.235 491.6 199.785 491.599 199.433 491.781C199.08 491.962 198.819 492.267 198.649 492.695C198.48 493.123 198.395 493.618 198.395 494.179C198.395 494.741 198.48 495.29 198.649 495.828C198.819 496.365 199.08 496.84 199.433 497.253C199.785 497.666 200.235 497.963 200.781 498.145ZM209.807 493.741V494.834L205.513 493.403V492.309L209.807 493.741ZM206.799 501.135V491.579C206.799 491.098 206.906 490.733 207.12 490.483C207.335 490.234 207.613 490.086 207.955 490.04C208.298 489.994 208.659 490.034 209.039 490.161C209.34 490.261 209.586 490.369 209.776 490.483C209.966 490.597 210.108 490.692 210.201 490.767L209.848 491.765C209.786 491.722 209.7 491.666 209.589 491.596C209.482 491.528 209.34 491.464 209.164 491.405C208.759 491.27 208.467 491.28 208.287 491.436C208.111 491.592 208.023 491.878 208.023 492.293V501.543L206.799 501.135ZM215.63 507.228V495.682L216.813 496.076V497.41L216.958 497.458C217.048 497.342 217.172 497.198 217.331 497.025C217.494 496.85 217.725 496.723 218.026 496.645C218.331 496.564 218.742 496.61 219.261 496.783C219.931 497.006 220.523 497.38 221.034 497.904C221.546 498.428 221.946 499.063 222.232 499.807C222.519 500.551 222.663 501.365 222.663 502.247C222.663 503.136 222.519 503.859 222.232 504.416C221.946 504.969 221.548 505.339 221.04 505.527C220.531 505.711 219.945 505.693 219.281 505.471C218.77 505.301 218.36 505.075 218.052 504.794C217.744 504.509 217.508 504.224 217.342 503.939C217.176 503.65 217.048 503.415 216.958 503.232L216.854 503.197V507.636L215.63 507.228ZM216.833 500.282C216.833 500.916 216.922 501.505 217.098 502.048C217.274 502.588 217.532 503.051 217.871 503.437C218.209 503.82 218.624 504.093 219.115 504.257C219.627 504.427 220.054 504.428 220.396 504.257C220.742 504.085 221.002 503.785 221.174 503.358C221.351 502.928 221.439 502.414 221.439 501.817C221.439 501.226 221.353 500.665 221.18 500.134C221.01 499.6 220.753 499.137 220.407 498.745C220.065 498.35 219.634 498.066 219.115 497.893C218.617 497.727 218.199 497.721 217.86 497.874C217.521 498.023 217.266 498.306 217.093 498.722C216.92 499.135 216.833 499.655 216.833 500.282ZM227.87 508.334C227.103 508.078 226.44 507.679 225.884 507.136C225.331 506.591 224.904 505.946 224.603 505.2C224.305 504.452 224.157 503.648 224.157 502.788C224.157 501.928 224.305 501.22 224.603 500.663C224.904 500.103 225.322 499.729 225.858 499.539C226.397 499.347 227.027 499.371 227.746 499.611C228.161 499.749 228.57 499.959 228.975 500.239C229.379 500.52 229.748 500.88 230.08 501.318C230.412 501.753 230.676 502.272 230.873 502.873C231.07 503.475 231.169 504.167 231.169 504.951V505.497L225.028 503.45V502.335L229.924 503.967C229.924 503.493 229.834 503.041 229.654 502.609C229.478 502.178 229.226 501.801 228.897 501.476C228.572 501.153 228.188 500.918 227.746 500.77C227.258 500.607 226.836 500.594 226.48 500.731C226.128 500.865 225.856 501.102 225.666 501.444C225.476 501.785 225.381 502.187 225.381 502.65V503.393C225.381 504.027 225.484 504.599 225.692 505.11C225.903 505.617 226.195 506.048 226.568 506.402C226.942 506.753 227.376 507.01 227.87 507.175C228.192 507.282 228.482 507.332 228.742 507.323C229.004 507.313 229.231 507.242 229.421 507.113C229.611 506.979 229.758 506.784 229.862 506.527L231.044 507.271C230.92 507.652 230.711 507.954 230.417 508.177C230.123 508.396 229.76 508.523 229.328 508.558C228.895 508.588 228.41 508.514 227.87 508.334ZM233.031 509.879V501.482L234.213 501.876V503.145L234.296 503.172C234.441 502.805 234.704 502.556 235.085 502.424C235.465 502.292 235.894 502.305 236.371 502.464C236.461 502.494 236.573 502.533 236.708 502.582C236.843 502.631 236.945 502.67 237.014 502.7V504.013C236.973 503.988 236.877 503.94 236.729 503.868C236.584 503.794 236.43 503.73 236.267 503.676C235.88 503.547 235.534 503.517 235.23 503.587C234.929 503.655 234.69 503.808 234.514 504.048C234.341 504.286 234.255 504.594 234.255 504.973V510.287L233.031 509.879ZM242.512 504.642V505.736L238.217 504.304V503.211L242.512 504.642ZM239.504 512.037V502.481C239.504 501.999 239.611 501.634 239.825 501.385C240.039 501.136 240.318 500.988 240.66 500.942C241.002 500.895 241.364 500.936 241.744 501.062C242.045 501.163 242.29 501.27 242.481 501.385C242.671 501.499 242.813 501.594 242.906 501.668L242.553 502.666C242.491 502.624 242.405 502.567 242.294 502.498C242.187 502.429 242.045 502.366 241.869 502.307C241.464 502.172 241.172 502.182 240.992 502.337C240.816 502.493 240.728 502.779 240.728 503.195V512.445L239.504 512.037ZM247.135 514.756C246.416 514.516 245.785 514.125 245.242 513.584C244.703 513.043 244.281 512.398 243.977 511.647C243.676 510.898 243.526 510.09 243.526 509.223C243.526 508.348 243.676 507.635 243.977 507.082C244.281 506.531 244.703 506.165 245.242 505.984C245.785 505.805 246.416 505.834 247.135 506.074C247.855 506.314 248.484 506.704 249.023 507.245C249.566 507.787 249.988 508.434 250.289 509.186C250.593 509.94 250.745 510.755 250.745 511.629C250.745 512.497 250.593 513.204 250.289 513.751C249.988 514.3 249.566 514.664 249.023 514.844C248.484 515.025 247.855 514.996 247.135 514.756ZM247.135 513.597C247.682 513.779 248.131 513.781 248.484 513.604C248.837 513.426 249.098 513.125 249.267 512.7C249.437 512.276 249.521 511.783 249.521 511.221C249.521 510.66 249.437 510.109 249.267 509.568C249.098 509.026 248.837 508.547 248.484 508.131C248.131 507.715 247.682 507.415 247.135 507.233C246.589 507.051 246.14 507.051 245.787 507.232C245.434 507.413 245.173 507.718 245.004 508.146C244.834 508.575 244.75 509.069 244.75 509.631C244.75 510.192 244.834 510.741 245.004 511.279C245.173 511.817 245.434 512.292 245.787 512.705C246.14 513.117 246.589 513.415 247.135 513.597ZM252.614 516.407V508.01L253.796 508.404V509.672L253.879 509.7C254.024 509.333 254.287 509.083 254.668 508.951C255.048 508.819 255.477 508.833 255.954 508.992C256.044 509.022 256.156 509.061 256.291 509.11C256.426 509.158 256.528 509.198 256.597 509.228V510.54C256.555 510.515 256.46 510.467 256.312 510.396C256.166 510.322 256.013 510.258 255.85 510.204C255.463 510.075 255.117 510.045 254.813 510.115C254.512 510.182 254.273 510.336 254.097 510.576C253.924 510.814 253.838 511.122 253.838 511.501V516.815L252.614 516.407ZM258.048 518.218V509.821L259.23 510.215V511.527L259.334 511.562C259.5 511.169 259.768 510.91 260.138 510.786C260.508 510.657 260.952 510.68 261.471 510.853C261.997 511.028 262.434 511.299 262.783 511.667C263.136 512.033 263.411 512.472 263.608 512.986L263.691 513.014C263.895 512.648 264.201 512.406 264.609 512.287C265.017 512.164 265.506 512.198 266.077 512.388C266.789 512.625 267.371 513.055 267.824 513.676C268.277 514.293 268.504 515.096 268.504 516.084V521.704L267.28 521.296V515.676C267.28 515.056 267.119 514.56 266.797 514.186C266.476 513.813 266.097 513.554 265.662 513.409C265.102 513.222 264.668 513.256 264.36 513.51C264.052 513.761 263.898 514.158 263.898 514.702V520.169L262.653 519.754V514.002C262.653 513.525 262.507 513.091 262.213 512.702C261.919 512.309 261.54 512.035 261.077 511.88C260.759 511.774 260.461 511.764 260.185 511.851C259.912 511.938 259.69 512.112 259.521 512.373C259.355 512.631 259.272 512.966 259.272 513.378V518.626L258.048 518.218ZM274.082 523.738C273.314 523.482 272.652 523.083 272.096 522.54C271.542 521.995 271.115 521.35 270.814 520.604C270.517 519.856 270.368 519.052 270.368 518.192C270.368 517.332 270.517 516.623 270.814 516.067C271.115 515.507 271.534 515.133 272.07 514.943C272.609 514.751 273.238 514.775 273.957 515.015C274.372 515.153 274.782 515.363 275.187 515.643C275.591 515.924 275.959 516.284 276.291 516.722C276.623 517.157 276.888 517.676 277.085 518.277C277.282 518.878 277.381 519.571 277.381 520.355V520.901L271.24 518.854V517.739L276.136 519.371C276.136 518.897 276.046 518.445 275.866 518.013C275.69 517.582 275.437 517.205 275.109 516.88C274.784 516.557 274.4 516.321 273.957 516.174C273.47 516.011 273.048 515.998 272.692 516.135C272.339 516.269 272.068 516.506 271.878 516.847C271.688 517.189 271.592 517.591 271.592 518.053V518.797C271.592 519.431 271.696 520.003 271.904 520.514C272.115 521.021 272.407 521.452 272.78 521.806C273.154 522.157 273.587 522.414 274.082 522.579C274.404 522.686 274.694 522.736 274.953 522.727C275.216 522.717 275.443 522.646 275.633 522.516C275.823 522.383 275.97 522.188 276.074 521.931L277.256 522.675C277.132 523.056 276.922 523.358 276.629 523.581C276.335 523.8 275.972 523.927 275.539 523.961C275.107 523.992 274.621 523.918 274.082 523.738ZM279.243 525.283V516.886L280.425 517.28V518.548L280.508 518.576C280.653 518.209 280.916 517.959 281.296 517.827C281.677 517.696 282.105 517.709 282.583 517.868C282.673 517.898 282.785 517.937 282.92 517.986C283.055 518.035 283.157 518.074 283.226 518.104V519.416C283.184 519.392 283.089 519.344 282.94 519.272C282.795 519.198 282.641 519.134 282.479 519.08C282.092 518.951 281.746 518.921 281.442 518.991C281.141 519.059 280.902 519.212 280.726 519.452C280.553 519.69 280.467 519.998 280.467 520.377V525.691L279.243 525.283ZM290.32 522.459L289.22 522.42C289.151 522.204 289.049 521.983 288.914 521.755C288.783 521.526 288.603 521.313 288.375 521.116C288.146 520.92 287.854 520.762 287.498 520.644C287.011 520.481 286.604 520.464 286.279 520.593C285.958 520.719 285.797 520.962 285.797 521.323C285.797 521.644 285.908 521.934 286.129 522.194C286.35 522.453 286.696 522.724 287.166 523.004L288.349 523.705C289.061 524.124 289.592 524.58 289.941 525.072C290.29 525.56 290.465 526.097 290.465 526.684C290.465 527.165 290.333 527.552 290.071 527.843C289.811 528.136 289.448 528.313 288.981 528.377C288.515 528.44 287.972 528.368 287.353 528.162C286.54 527.891 285.868 527.481 285.335 526.932C284.803 526.382 284.466 525.727 284.324 524.965L285.486 525.046C285.596 525.535 285.806 525.944 286.113 526.272C286.425 526.602 286.831 526.851 287.332 527.018C287.903 527.208 288.356 527.231 288.691 527.088C289.03 526.942 289.199 526.689 289.199 526.328C289.199 526.036 289.103 525.76 288.909 525.499C288.715 525.234 288.418 524.985 288.017 524.753L286.689 523.982C285.959 523.557 285.424 523.096 285.081 522.599C284.742 522.1 284.573 521.56 284.573 520.981C284.573 520.507 284.699 520.13 284.952 519.85C285.207 519.57 285.555 519.4 285.994 519.339C286.437 519.278 286.938 519.342 287.498 519.528C288.286 519.791 288.905 520.18 289.355 520.694C289.808 521.21 290.129 521.798 290.32 522.459Z" fill="black"/>
<path d="M175.611 490.893C174.926 490.664 174.316 490.337 173.78 489.911C173.248 489.485 172.824 489 172.509 488.454C172.198 487.905 172.029 487.333 172.001 486.737L173.308 487.173C173.336 487.543 173.453 487.894 173.661 488.225C173.868 488.553 174.14 488.844 174.475 489.098C174.811 489.352 175.182 489.547 175.59 489.683C176.047 489.835 176.451 489.886 176.804 489.836C177.157 489.786 177.433 489.645 177.634 489.413C177.834 489.181 177.935 488.868 177.935 488.474C177.935 488.062 177.838 487.668 177.644 487.29C177.45 486.908 177.167 486.566 176.794 486.263C176.42 485.959 175.964 485.718 175.424 485.538L174.574 485.255V484.052L175.424 484.335C175.846 484.476 176.216 484.519 176.534 484.465C176.856 484.412 177.106 484.269 177.286 484.038C177.47 483.807 177.561 483.495 177.561 483.101C177.561 482.722 177.482 482.366 177.323 482.032C177.163 481.699 176.939 481.405 176.648 481.152C176.361 480.899 176.022 480.708 175.632 480.578C175.265 480.456 174.919 480.411 174.594 480.445C174.273 480.476 174.01 480.591 173.806 480.789C173.602 480.984 173.491 481.264 173.474 481.63L172.229 481.215C172.25 480.635 172.418 480.177 172.732 479.841C173.047 479.501 173.459 479.292 173.967 479.214C174.479 479.136 175.04 479.2 175.652 479.404C176.309 479.623 176.873 479.951 177.343 480.388C177.814 480.822 178.175 481.309 178.427 481.848C178.68 482.388 178.806 482.922 178.806 483.451C178.806 484.081 178.649 484.566 178.334 484.906C178.023 485.247 177.599 485.414 177.063 485.407V485.494C177.734 485.834 178.258 486.31 178.635 486.92C179.012 487.527 179.2 488.185 179.2 488.896C179.2 489.505 179.043 489.999 178.728 490.379C178.417 490.756 177.992 490.994 177.452 491.091C176.913 491.188 176.299 491.122 175.611 490.893ZM186.788 492.366V491.775C186.788 491.353 186.871 490.994 187.037 490.699C187.206 490.402 187.452 490.202 187.773 490.097C188.098 489.991 188.491 490.014 188.951 490.167C189.421 490.324 189.815 490.561 190.133 490.879C190.451 491.196 190.692 491.559 190.854 491.966C191.02 492.375 191.103 492.791 191.103 493.214V493.804C191.103 494.227 191.02 494.587 190.854 494.886C190.688 495.18 190.444 495.381 190.123 495.489C189.805 495.595 189.414 495.57 188.951 495.416C188.484 495.26 188.09 495.023 187.768 494.704C187.447 494.382 187.203 494.018 187.037 493.613C186.871 493.204 186.788 492.789 186.788 492.366ZM187.996 492.178V492.769C187.996 493.082 188.067 493.39 188.209 493.692C188.351 493.995 188.598 494.205 188.951 494.322C189.3 494.439 189.544 494.392 189.682 494.183C189.82 493.974 189.889 493.713 189.889 493.4V492.809C189.889 492.496 189.822 492.189 189.687 491.889C189.556 491.59 189.31 491.381 188.951 491.261C188.605 491.145 188.359 491.191 188.214 491.398C188.069 491.605 187.996 491.865 187.996 492.178ZM181.446 484.178V483.587C181.446 483.164 181.529 482.804 181.695 482.506C181.864 482.209 182.11 482.008 182.431 481.904C182.756 481.801 183.149 481.826 183.609 481.979C184.079 482.136 184.473 482.373 184.791 482.69C185.109 483.008 185.35 483.37 185.512 483.778C185.675 484.186 185.756 484.601 185.756 485.024V485.614C185.756 486.037 185.673 486.398 185.507 486.696C185.344 486.992 185.102 487.193 184.781 487.301C184.463 487.407 184.072 487.382 183.609 487.228C183.138 487.071 182.742 486.833 182.421 486.515C182.103 486.194 181.861 485.83 181.695 485.425C181.529 485.016 181.446 484.6 181.446 484.178ZM182.659 483.992V484.582C182.659 484.896 182.729 485.203 182.867 485.504C183.009 485.807 183.256 486.017 183.609 486.134C183.954 486.249 184.196 486.203 184.335 485.994C184.476 485.786 184.547 485.525 184.547 485.212V484.621C184.547 484.308 184.48 484.001 184.345 483.701C184.21 483.401 183.965 483.191 183.609 483.073C183.263 482.957 183.017 483.003 182.872 483.21C182.73 483.418 182.659 483.678 182.659 483.992ZM181.939 492.849L189.241 484.086L190.481 484.5L183.178 493.262L181.939 492.849Z" fill="#FE5401"/>
</g>
<defs>
<filter id="filter0_dddd_16145_1294" x="0.124885" y="0.318792" width="640.588" height="644.076" filterUnits="userSpaceOnUse" color-interpolation-filters="sRGB">
<feFlood flood-opacity="0" result="BackgroundImageFix"/>
<feColorMatrix in="SourceAlpha" type="matrix" values="0 0 0 0 0 0 0 0 0 0 0 0 0 0 0 0 0 0 127 0" result="hardAlpha"/>
<feOffset dx="13.5228" dy="-1.35228"/>
<feGaussianBlur stdDeviation="14.199"/>
<feColorMatrix type="matrix" values="0 0 0 0 0 0 0 0 0 0 0 0 0 0 0 0 0 0 0.1 0"/>
<feBlend mode="normal" in2="BackgroundImageFix" result="effect1_dropShadow_16145_1294"/>
<feColorMatrix in="SourceAlpha" type="matrix" values="0 0 0 0 0 0 0 0 0 0 0 0 0 0 0 0 0 0 127 0" result="hardAlpha"/>
<feOffset dx="52.739" dy="-5.40913"/>
<feGaussianBlur stdDeviation="26.3695"/>
<feColorMatrix type="matrix" values="0 0 0 0 0 0 0 0 0 0 0 0 0 0 0 0 0 0 0.09 0"/>
<feBlend mode="normal" in2="effect1_dropShadow_16145_1294" result="effect2_dropShadow_16145_1294"/>
<feColorMatrix in="SourceAlpha" type="matrix" values="0 0 0 0 0 0 0 0 0 0 0 0 0 0 0 0 0 0 127 0" result="hardAlpha"/>
<feOffset dx="117.649" dy="-12.1705"/>
<feGaussianBlur stdDeviation="35.1594"/>
<feColorMatrix type="matrix" values="0 0 0 0 0 0 0 0 0 0 0 0 0 0 0 0 0 0 0.05 0"/>
<feBlend mode="normal" in2="effect2_dropShadow_16145_1294" result="effect3_dropShadow_16145_1294"/>
<feColorMatrix in="SourceAlpha" type="matrix" values="0 0 0 0 0 0 0 0 0 0 0 0 0 0 0 0 0 0 127 0" result="hardAlpha"/>
<feOffset dx="209.604" dy="-21.6365"/>
<feGaussianBlur stdDeviation="41.9208"/>
<feColorMatrix type="matrix" values="0 0 0 0 0 0 0 0 0 0 0 0 0 0 0 0 0 0 0.01 0"/>
<feBlend mode="normal" in2="effect3_dropShadow_16145_1294" result="effect4_dropShadow_16145_1294"/>
<feBlend mode="normal" in="SourceGraphic" in2="effect4_dropShadow_16145_1294" result="shape"/>
</filter>
</defs>
</svg>
