<svg width="153" height="30" viewBox="0 0 153 30" fill="none" xmlns="http://www.w3.org/2000/svg">
<path d="M131.881 23.9352V10.0007H135.109V11.9164C136.185 10.7355 137.759 9.73828 139.885 9.73828C142.22 9.73828 143.139 10.6567 143.69 12.0213C144.792 10.8142 146.445 9.73828 148.571 9.73828C151.405 9.73828 152.638 11.444 152.638 13.937V23.9352H149.41V14.7505C149.41 13.2022 148.964 12.4937 147.442 12.4937C146.13 12.4937 145.081 13.2285 143.873 14.3044V23.9352H140.646V14.7505C140.646 13.2022 140.2 12.4937 138.678 12.4937C137.392 12.4937 136.316 13.2285 135.109 14.3044V23.9352H131.881Z" fill="#001524"/>
<path d="M120.872 24.1451C118.615 24.1451 116.936 22.8855 116.936 20.5762C116.936 17.5584 119.507 15.5378 126.015 14.803V14.3831C126.015 12.9923 125.28 12.3887 123.732 12.3887C121.79 12.3887 120.216 13.3334 119.035 14.2781L117.46 12.2575C118.956 10.8929 121.292 9.73828 124.178 9.73828C127.905 9.73828 129.191 11.5227 129.191 14.7767V20.5237C129.191 22.2032 129.296 23.2267 129.584 23.9352H126.33C126.146 23.3579 126.015 22.938 126.015 22.1507C124.598 23.594 122.945 24.1451 120.872 24.1451ZM122.053 21.6521C123.706 21.6521 124.992 21.0223 126.015 20.0514V16.9811C122.158 17.5059 120.111 18.4506 120.111 19.9726C120.111 21.0748 120.872 21.6521 122.053 21.6521Z" fill="#001524"/>
<path d="M108.238 23.9352V10.0007H111.466V12.2838H111.519C112.385 10.8929 113.88 9.73828 116.531 9.73828H116.741L116.636 12.7036C116.478 12.6774 115.953 12.6511 115.77 12.6511C113.697 12.6511 112.385 13.6221 111.466 15.1179V23.9352H108.238Z" fill="#001524"/>
<path d="M98.8722 29.341C94.07 29.341 92.1543 27.9502 92.1543 25.9296C92.1543 24.5388 93.0203 23.5416 94.4373 22.9905C93.7288 22.6231 93.3614 22.0458 93.3614 21.2847C93.3614 20.2351 94.2012 19.3691 95.2508 18.7393C93.8338 17.847 93.0465 16.43 93.0465 14.7243C93.0465 11.8639 95.2509 9.73828 98.8985 9.73828C100.814 9.73828 102.231 10.3681 103.176 11.2078C104.068 10.4993 105.485 9.94822 106.64 9.84325V12.4674C106.01 12.4674 105.118 12.5462 104.199 12.8348C104.514 13.3334 104.698 13.9895 104.698 14.7243C104.698 17.6371 102.52 19.684 98.8985 19.684C98.1112 19.684 97.6389 19.579 96.9566 19.3953C96.5367 19.6315 96.248 19.9202 96.248 20.2876C96.248 20.8386 96.6154 21.0223 97.8488 21.1273L100.316 21.2847C104.436 21.5472 106.063 22.6493 106.063 25.0898C106.063 27.9502 103.176 29.341 98.8722 29.341ZM98.951 17.4534C100.709 17.4534 101.759 16.535 101.759 14.8292C101.759 13.0973 100.762 12.1525 98.9247 12.1525C97.1403 12.1525 96.0906 13.1235 96.0906 14.8292C96.0906 16.535 97.1665 17.4534 98.951 17.4534ZM99.3708 27.0055C101.733 27.0055 103.202 26.3757 103.202 25.3785C103.202 24.3813 102.494 24.0139 99.6595 23.8302L97.2452 23.6728C96.9566 23.6728 96.6942 23.6465 96.4055 23.594C95.487 24.0139 95.1196 24.67 95.1196 25.3785C95.1196 26.6119 96.5367 27.0055 99.3708 27.0055Z" fill="#001524"/>
<path d="M89.2316 24.1194C85.689 24.1194 84.9279 22.8073 84.9279 20.2881V12.573H82.5137V10.0012H84.9279V5.14648H88.1557V10.0012H91.7508V12.573H88.1557V19.4746C88.1557 20.9704 88.6018 21.574 90.2026 21.574C90.6749 21.574 91.2785 21.4952 91.5934 21.3903V23.9357C91.2523 24.0145 90.0451 24.1194 89.2316 24.1194Z" fill="#001524"/>
<path d="M76.0061 23.9333V12.5706H73.5918V9.99884H76.0061V8.58178C76.0061 6.24624 76.977 4.43555 80.5197 4.43555C81.1232 4.43555 82.1992 4.54051 82.4353 4.56676V7.05974C82.2254 7.00726 81.7006 6.95478 81.3332 6.95478C80.1785 6.95478 79.2338 7.26968 79.2338 8.76547V9.99884H82.2779V12.5706H79.2338V23.9333H76.0061Z" fill="#001524"/>
<path d="M63.7918 24.1451C61.535 24.1451 59.8555 22.8855 59.8555 20.5762C59.8555 17.5584 62.4272 15.5378 68.9352 14.803V14.3831C68.9352 12.9923 68.2004 12.3887 66.6521 12.3887C64.7102 12.3887 63.1357 13.3334 61.9548 14.2781L60.3803 12.2575C61.8761 10.8929 64.2116 9.73828 67.0983 9.73828C70.8246 9.73828 72.1105 11.5227 72.1105 14.7767V20.5237C72.1105 22.2032 72.2154 23.2267 72.5041 23.9352H69.2501C69.0664 23.3579 68.9352 22.938 68.9352 22.1507C67.5181 23.594 65.8649 24.1451 63.7918 24.1451ZM64.9727 21.6521C66.6259 21.6521 67.9118 21.0223 68.9352 20.0514V16.9811C65.0776 17.5059 63.0307 18.4506 63.0307 19.9726C63.0307 21.0748 63.7918 21.6521 64.9727 21.6521Z" fill="#001524"/>
<path d="M51.1562 23.9352V10.0007H54.384V12.2838H54.4365C55.3025 10.8929 56.7983 9.73828 59.4487 9.73828H59.6586L59.5537 12.7036C59.3962 12.6774 58.8714 12.6511 58.6877 12.6511C56.6146 12.6511 55.3025 13.6221 54.384 15.1179V23.9352H51.1562Z" fill="#001524"/>
<path d="M41.1107 24.3023C36.1247 24.3023 32.582 20.8646 32.582 14.1729C32.582 7.66486 36.2297 4.14844 41.1107 4.14844C45.6243 4.14844 47.7761 6.64142 48.6421 10.1841L45.5193 11.0763C44.7845 8.5046 43.6561 7.19251 41.0844 7.19251C37.8042 7.19251 35.8885 9.73798 35.8885 14.1466C35.8885 18.7652 37.8567 21.3107 41.1369 21.3107C43.6561 21.3107 45.0732 20.0511 45.808 17.1382L48.9308 17.8467C47.9861 21.7043 45.598 24.3023 41.1107 24.3023Z" fill="#001524"/>
<g clip-path="url(#clip0_15833_3245)">
<path d="M13.1973 0.193359V13.3143L7.47436 7.58977C6.94247 7.05361 6.64236 6.32994 6.63867 5.5746V0.193359H13.1973Z" fill="#00CECB"/>
<path d="M26.32 13.3147H13.1953L18.9257 7.59012C19.1927 7.32036 19.5114 7.10729 19.8627 6.96365C20.214 6.82002 20.5907 6.74878 20.9702 6.75419H26.3499L26.32 13.3147Z" fill="#00CECB"/>
<path d="M13.1953 26.4354V13.3145L18.9183 19.0465C19.1883 19.3133 19.4015 19.6321 19.5451 19.9835C19.6888 20.335 19.7598 20.7119 19.7539 21.0915V26.4728L13.1953 26.4354Z" fill="#00CECB"/>
<path d="M0.0800781 13.3145H13.1973L7.47439 19.039C6.94021 19.5738 6.21556 19.8745 5.45979 19.8749H0.0800781V13.3145Z" fill="#00CECB"/>
</g>
<defs>
<clipPath id="clip0_15833_3245">
<rect width="26.242" height="26.242" fill="white" transform="translate(0.0820312 0.191406)"/>
</clipPath>
</defs>
</svg>
