<svg width="121" height="24" viewBox="0 0 121 24" fill="none" xmlns="http://www.w3.org/2000/svg">
<path d="M111.99 0.359375H120.52V3.60159H115.279V7.09947H119.788V10.3533H115.279V19.9173H120.52V23.1595H111.99V0.359375Z" fill="black"/>
<path d="M99.0332 0.359375H102.322L105.436 13.5839V0.359375H108.481V23.1595H105.192L102.194 10.3533V23.1595H99.0332V0.359375Z" fill="black"/>
<path d="M90.9213 5.58876L88.5971 23.1595H85.2852L88.6784 0.359375H93.1873L96.569 23.1595H93.2454L90.9213 5.58876Z" fill="black"/>
<path d="M75.3496 23.1595V0.359375H78.6383V19.9173H83.8793V23.1595H75.3496Z" fill="black"/>
<path d="M62.3945 0.359375H65.6832V13.0842H68.5536V0.359375H71.8423V23.1595H68.5536V16.338H65.6832V23.1595H62.3945V0.359375Z" fill="black"/>
<path d="M55.9442 7.0519V4.79746C55.9442 3.76708 55.4639 3.25189 54.5032 3.25189C53.5503 3.25189 53.0739 3.76708 53.0739 4.79746V18.7425C53.0739 19.7729 53.5464 20.2881 54.4916 20.2881H54.5148C55.4678 20.2803 55.9442 19.7651 55.9442 18.7425V15.6746H59.2329V18.7425C59.2329 21.9343 57.6563 23.5303 54.5032 23.5303C51.3578 23.5303 49.7852 21.9343 49.7852 18.7425V4.79746C49.7852 1.59785 51.3578 -0.00195312 54.5032 -0.00195312C57.6563 0.00579411 59.2329 1.6056 59.2329 4.79746V7.0519H55.9442Z" fill="black"/>
<path d="M37.0605 0.359375H40.3492L43.4636 13.5839V0.359375H46.5083V23.1595H43.2196L40.2214 10.3533V23.1595H37.0605V0.359375Z" fill="black"/>
<path d="M33.6685 18.7319C33.6685 21.9238 32.0919 23.5236 28.9388 23.5314C25.7934 23.5314 24.2207 21.9316 24.2207 18.7319V0.359375H27.5094V18.7319C27.5094 19.7623 27.9859 20.2775 28.9388 20.2775C29.8994 20.2775 30.3798 19.7623 30.3798 18.7319V0.359375H33.6685V18.7319Z" fill="black"/>
<path d="M16.224 5.58876L13.8998 23.1595H10.5879L13.9812 0.359375H18.4901L21.8717 23.1595H18.5482L16.224 5.58876Z" fill="black"/>
<path d="M0.654297 23.1595V0.359375H3.943V19.9173H9.184V23.1595H0.654297Z" fill="black"/>
</svg>
