<svg width="97" height="27" viewBox="0 0 97 27" fill="none" xmlns="http://www.w3.org/2000/svg">
<path d="M70.6251 11.9072L69.2867 20.3838C69.2409 20.7041 69.218 20.9443 69.218 21.1045C69.218 22.4086 70.0188 23.0606 71.6203 23.0606C72.1923 23.0606 72.81 23.0034 73.4735 22.889L72.8901 26.4924C72.0207 26.6755 71.0941 26.767 70.1103 26.767C68.1885 26.767 66.7929 26.298 65.9235 25.3599C65.0541 24.4219 64.6194 23.2093 64.6194 21.7222C64.6194 21.2646 64.6537 20.7956 64.7223 20.3151L66.0264 11.9072H62.8691L63.4525 8.2351H66.6098L67.3305 3.70508H71.9292L71.2085 8.2351H75.1894L74.606 11.9072H70.6251Z" fill="#06063C"/>
<path d="M63.089 3.4642C61.4417 3.4642 60.4922 4.32215 60.2406 6.03807L59.8974 8.23444H63.6381L63.0547 11.9065H59.314L56.9803 26.4231H52.416L54.7496 11.9065H51.6953L52.2787 8.23444H55.3331L55.7106 5.83216C55.9622 4.162 56.6371 2.77783 57.7353 1.67964C58.8335 0.55858 60.4694 -0.00195312 62.6429 -0.00195312C63.4665 -0.00195312 64.2444 0.101001 64.9765 0.306911L64.4617 3.63579C63.9584 3.52139 63.5008 3.4642 63.089 3.4642Z" fill="#06063C"/>
<path d="M49.6611 5.52274C48.8604 5.52274 48.1969 5.25963 47.6707 4.73342C47.1444 4.2072 46.8813 3.5666 46.8813 2.81159C46.8813 2.05659 47.1444 1.42742 47.6707 0.924087C48.1969 0.397873 48.8604 0.134766 49.6611 0.134766C50.439 0.134766 51.091 0.397873 51.6173 0.924087C52.1664 1.4503 52.4409 2.07947 52.4409 2.81159C52.4409 3.5666 52.1664 4.2072 51.6173 4.73342C51.091 5.25963 50.439 5.52274 49.6611 5.52274ZM48.1854 26.4226H43.6211L46.5381 8.23389H51.1025L48.1854 26.4226Z" fill="#06063C"/>
<path d="M35.35 20.4174L40.8409 8.23438H45.6798L37.0316 26.4231H32.1927L30.4425 14.7549L25.0202 26.4231H20.147L17.3672 8.23438H21.8286L23.4072 20.5203L29.1727 8.23438H33.4968L35.35 20.4174Z" fill="#06063C"/>
<path d="M8.58685 26.7676C6.13881 26.7676 4.27419 26.1842 2.99297 25.0174C1.73463 23.8506 1.02539 22.4207 0.865234 20.7276H5.2923C5.40669 21.4369 5.74987 22.0317 6.32185 22.5122C6.9167 22.9926 7.76321 23.2329 8.8614 23.2329C9.82231 23.2329 10.5544 23.0384 11.0578 22.6495C11.584 22.2605 11.8471 21.7801 11.8471 21.2081C11.8471 20.7047 11.6641 20.3158 11.298 20.0413C10.9548 19.7438 10.44 19.5036 9.75368 19.3206L7.52299 18.7028C4.34282 17.8106 2.75274 16.1404 2.75274 13.6924C2.75274 12.6399 3.02729 11.679 3.57638 10.8096C4.14835 9.91736 4.97199 9.20811 6.0473 8.6819C7.12261 8.15569 8.40382 7.89258 9.89095 7.89258C12.1102 7.89258 13.8032 8.43023 14.9701 9.50554C16.1598 10.5808 16.869 11.8964 17.0978 13.4521H12.8423C12.7051 12.8573 12.3733 12.3654 11.8471 11.9765C11.3209 11.5646 10.5888 11.3587 9.65072 11.3587C8.8042 11.3587 8.14072 11.5532 7.66026 11.9421C7.20268 12.3082 6.97389 12.7772 6.97389 13.3492C6.97389 14.1728 7.62594 14.7791 8.93004 15.1681L11.0578 15.7858C12.5678 16.1519 13.7918 16.7696 14.7298 17.639C15.6679 18.4855 16.1369 19.5951 16.1369 20.9679C16.1369 22.0432 15.8395 23.027 15.2446 23.9192C14.6498 24.7886 13.7804 25.4864 12.6364 26.0126C11.4925 26.516 10.1426 26.7676 8.58685 26.7676Z" fill="#06063C"/>
<path d="M87.9963 26.2519H80.5938V24.914C80.8492 22.758 81.8882 20.7711 83.5133 19.3313C85.1383 17.8915 87.2359 17.0993 89.4071 17.1054C87.2327 17.111 85.1325 16.3159 83.507 14.8718C81.8814 13.4278 80.8444 11.4358 80.5938 9.27603V7.94336H87.9963C87.9963 8.03706 87.9963 8.13077 87.9963 8.21926C88.0032 10.5688 88.9414 12.8197 90.6051 14.4786C92.2689 16.1375 94.5226 17.069 96.8721 17.069C94.523 17.0773 92.2729 18.0159 90.6143 19.6794C88.9557 21.3428 88.0237 23.5957 88.0223 25.9448C87.9911 26.0645 87.9911 26.1634 87.9963 26.2519Z" fill="#4361EE"/>
</svg>
