<svg width="105" height="27" viewBox="0 0 105 27" fill="none" xmlns="http://www.w3.org/2000/svg">
<path d="M98.0005 21.9553C96.4368 21.9553 95.1115 21.5834 94.0246 20.8398C92.9567 20.0961 92.1558 19.1331 91.6219 17.9508C91.107 16.7494 90.8496 15.4718 90.8496 14.1179C90.8496 12.745 91.107 11.4673 91.6219 10.2851C92.1558 9.0837 92.9567 8.11118 94.0246 7.36749C95.1115 6.6238 96.4464 6.25195 98.0291 6.25195C100.127 6.25195 101.786 6.9289 103.006 8.2828C104.246 9.6367 104.865 11.5913 104.865 14.1465V15.0904H94.2248V15.3193C94.2248 15.9867 94.3774 16.616 94.6825 17.2071C95.0067 17.7982 95.4452 18.275 95.9982 18.6373C96.5703 18.9805 97.2187 19.1521 97.9433 19.1521C98.7632 19.1521 99.4593 18.9615 100.031 18.5801C100.603 18.1796 101.032 17.6457 101.318 16.9783H104.722C104.322 18.4275 103.55 19.6193 102.405 20.5537C101.261 21.4881 99.793 21.9553 98.0005 21.9553ZM101.519 12.8022C101.481 11.4292 101.137 10.4281 100.489 9.79879C99.8597 9.15044 99.0302 8.82627 98.0005 8.82627C96.8945 8.82627 96.0078 9.18858 95.3404 9.9132C94.692 10.6188 94.3488 11.5817 94.3106 12.8022H101.519Z" fill="black"/>
<path d="M83.5522 21.9553C82.2937 21.9553 81.2067 21.7169 80.2914 21.2402C79.3761 20.7635 78.6801 20.1437 78.2034 19.381C77.7266 18.5991 77.4883 17.7792 77.4883 16.9211V16.7494H80.8921V16.9211C80.8921 17.5122 81.1305 18.0461 81.6072 18.5229C82.0839 18.9996 82.7609 19.238 83.638 19.238C84.3627 19.238 84.9538 19.0663 85.4115 18.7231C85.8691 18.3798 86.0979 17.9031 86.0979 17.2929C86.0979 16.759 85.8977 16.3395 85.4973 16.0344C85.1159 15.7293 84.6392 15.5386 84.0671 15.4623L82.2651 15.119C81.1019 14.9284 80.0721 14.4993 79.1759 13.8319C78.2987 13.1454 77.8601 12.1252 77.8601 10.7713C77.8601 9.3602 78.375 8.2542 79.4047 7.4533C80.4344 6.6524 81.7597 6.25195 83.3806 6.25195C84.5629 6.25195 85.5831 6.47125 86.4412 6.90984C87.3184 7.34842 87.9762 7.92049 88.4148 8.62605C88.8725 9.3316 89.1013 10.0944 89.1013 10.9143V11.0287H85.6975V10.9429C85.6975 10.4281 85.4973 9.94181 85.0968 9.48415C84.7154 9.02649 84.1052 8.79767 83.2662 8.79767C82.5606 8.79767 81.9981 8.97882 81.5786 9.34113C81.1591 9.68438 80.9493 10.142 80.9493 10.7141C80.9493 11.2099 81.14 11.6103 81.5214 11.9155C81.9218 12.2206 82.4176 12.4303 83.0088 12.5447L84.9824 12.888C86.2219 13.1359 87.2612 13.6031 88.1002 14.2895C88.9392 14.976 89.3587 15.9581 89.3587 17.2357C89.3587 18.1701 89.1013 18.9996 88.5864 19.7242C88.0907 20.4298 87.3946 20.9828 86.4984 21.3832C85.6212 21.7646 84.6392 21.9553 83.5522 21.9553Z" fill="black"/>
<path d="M73.9688 21.8405C72.6531 21.8405 71.6805 21.6403 71.0513 21.2398C70.422 20.8203 70.0215 20.3054 69.8499 19.6952C69.6974 19.066 69.6211 18.2651 69.6211 17.2925V0.273438H73.0821V16.6347C73.0821 17.3402 73.1107 17.8646 73.1679 18.2078C73.2442 18.5511 73.4349 18.8276 73.74 19.0373C74.0451 19.228 74.5314 19.3234 75.1988 19.3234C75.4467 19.3234 75.7422 19.3043 76.0855 19.2662V21.6689C75.4753 21.7833 74.7697 21.8405 73.9688 21.8405Z" fill="black"/>
<path d="M66.6584 21.7257H63.1687V19.18H62.9971C62.6348 19.9618 62.0627 20.6292 61.2809 21.1822C60.5181 21.7352 59.5838 22.0117 58.4778 22.0117C57.162 22.0117 56.1037 21.6971 55.3028 21.0678C54.5019 20.4195 53.9393 19.6186 53.6152 18.6651C53.291 17.7117 53.1289 16.7296 53.1289 15.719V6.62305H56.5899V15.1755C56.5899 16.3959 56.876 17.3494 57.448 18.0359C58.0201 18.7223 58.8115 19.0656 59.8221 19.0656C60.9091 19.0656 61.7386 18.7033 62.3106 17.9786C62.8827 17.235 63.1687 16.3006 63.1687 15.1755V6.62305H66.6584V21.7257Z" fill="black"/>
<path d="M44.4639 1.70312C46.0657 1.70312 47.4006 2.0273 48.4684 2.67565C49.5363 3.32399 50.3181 4.16303 50.8139 5.19276C51.3288 6.22248 51.5862 7.31895 51.5862 8.48216C51.5862 9.64537 51.3383 10.7418 50.8425 11.7716C50.3467 12.7822 49.5649 13.6022 48.497 14.2315C47.4292 14.8607 46.0848 15.1754 44.4639 15.1754H40.6597V21.7256H37.2559V1.70312H44.4639ZM43.9491 12.2864C45.1504 12.2864 46.1611 12.0004 46.9811 11.4283C47.801 10.8372 48.211 9.85513 48.211 8.48216C48.211 7.12826 47.801 6.17481 46.9811 5.62181C46.1802 5.04974 45.1695 4.7637 43.9491 4.7637H40.6597V12.2864H43.9491Z" fill="black"/>
<g clip-path="url(#clip0_15833_3211)">
<path d="M0.892578 7.39373V14.537C0.892578 16.4071 3.85516 16.4147 3.85516 14.537V7.39373C3.85516 7.00752 3.6991 6.63712 3.4213 6.36402C3.14351 6.09092 2.76673 5.9375 2.37387 5.9375C1.98101 5.9375 1.60423 6.09092 1.32644 6.36402C1.04864 6.63712 0.892578 7.00752 0.892578 7.39373Z" fill="#FC5795"/>
<path d="M25.3496 7.39167V14.5349C25.3767 14.9019 25.5442 15.2451 25.8183 15.4957C26.0923 15.7463 26.4527 15.8855 26.827 15.8855C27.2013 15.8855 27.5617 15.7463 27.8358 15.4957C28.1098 15.2451 28.2773 14.9019 28.3044 14.5349V7.39167C28.2773 7.0247 28.1098 6.68143 27.8358 6.43086C27.5617 6.1803 27.2013 6.04102 26.827 6.04102C26.4527 6.04102 26.0923 6.1803 25.8183 6.43086C25.5442 6.68143 25.3767 7.0247 25.3496 7.39167Z" fill="#FC5795"/>
<path d="M7.00586 1.6828V20.0773C7.00586 20.4636 7.16192 20.834 7.43972 21.1071C7.71752 21.3802 8.09429 21.5336 8.48715 21.5336C8.88001 21.5336 9.25679 21.3802 9.53458 21.1071C9.81238 20.834 9.96844 20.4636 9.96844 20.0773V1.6828C9.96844 1.29658 9.81238 0.926181 9.53458 0.653084C9.25679 0.379987 8.88001 0.226563 8.48715 0.226562C8.09429 0.226563 7.71752 0.379987 7.43972 0.653084C7.16192 0.926181 7.00586 1.29658 7.00586 1.6828Z" fill="#FC5795"/>
<path d="M19.2285 1.6828V20.0773C19.2285 20.4636 19.3846 20.834 19.6624 21.1071C19.9402 21.3802 20.3169 21.5336 20.7098 21.5336C21.1027 21.5336 21.4794 21.3802 21.7572 21.1071C22.035 20.834 22.1911 20.4636 22.1911 20.0773V1.6828C22.1911 1.29658 22.035 0.926181 21.7572 0.653084C21.4794 0.379987 21.1027 0.226563 20.7098 0.226562C20.3169 0.226563 19.9402 0.379987 19.6624 0.653084C19.3846 0.926181 19.2285 1.29658 19.2285 1.6828Z" fill="#FC5795"/>
<path d="M13.1172 6.71796V25.1125C13.1172 26.9826 16.0798 26.9903 16.0798 25.1125V6.71796C16.0798 4.84785 13.1172 4.84018 13.1172 6.71796Z" fill="#FC5795"/>
</g>
<defs>
<clipPath id="clip0_15833_3211">
<rect width="27.4117" height="26.2199" fill="white" transform="translate(0.892578 0.273438)"/>
</clipPath>
</defs>
</svg>
