<svg width="155" height="32" viewBox="0 0 155 32" fill="none" xmlns="http://www.w3.org/2000/svg">
<path d="M142.266 13.4954C142.266 12.1383 142.775 11.0734 143.793 10.3007C144.81 9.50908 146.205 9.11328 147.977 9.11328C149.767 9.11328 151.162 9.50908 152.161 10.3007C153.179 11.0734 153.707 12.1572 153.744 13.5519H150.719C150.7 12.9488 150.446 12.4776 149.956 12.1383C149.485 11.7802 148.853 11.6012 148.062 11.6012C147.157 11.6012 146.46 11.7519 145.97 12.0535C145.498 12.3551 145.263 12.798 145.263 13.3823C145.263 13.9477 145.48 14.3812 145.913 14.6828C146.347 14.9655 146.893 15.1916 147.553 15.3613C148.212 15.512 148.919 15.6628 149.673 15.8136C150.427 15.9455 151.134 16.1623 151.794 16.4638C152.453 16.7466 153 17.1518 153.433 17.6795C153.867 18.1884 154.084 18.9046 154.084 19.8281C154.084 21.204 153.575 22.2878 152.557 23.0794C151.539 23.8521 150.078 24.2385 148.175 24.2385C146.196 24.2385 144.66 23.8333 143.567 23.0228C142.492 22.2124 141.955 21.1286 141.955 19.7716H144.98C145.187 21.0909 146.271 21.7506 148.231 21.7506C150.116 21.7506 151.058 21.1758 151.058 20.026C151.058 19.4606 150.842 19.046 150.408 18.7821C149.975 18.5182 149.428 18.3109 148.768 18.1601C148.128 17.9905 147.421 17.8397 146.648 17.7078C145.894 17.5759 145.187 17.3685 144.528 17.0858C143.887 16.7843 143.35 16.3602 142.916 15.8136C142.483 15.2482 142.266 14.4754 142.266 13.4954Z" fill="black"/>
<path d="M140.526 16.7176C140.526 17.7731 140.347 18.7626 139.989 19.6861C139.63 20.5908 139.131 21.3824 138.49 22.0609C137.849 22.7395 137.086 23.2766 136.2 23.6724C135.333 24.0682 134.372 24.2661 133.316 24.2661C132.11 24.2661 131.102 24.0588 130.291 23.6441C129.5 23.2106 128.859 22.6264 128.369 21.8913V24.0117H125.457V3.65625H128.369V11.4874C128.859 10.7524 129.5 10.1775 130.291 9.76288C131.102 9.32938 132.11 9.11263 133.316 9.11263C134.372 9.11263 135.333 9.31053 136.2 9.70633C137.086 10.0833 137.849 10.6204 138.49 11.3178C139.131 11.9963 139.63 12.7973 139.989 13.7209C140.347 14.6444 140.526 15.6433 140.526 16.7176ZM128.369 15.7564V17.6789C128.463 18.1878 128.633 18.6684 128.878 19.1207C129.123 19.5731 129.434 19.9689 129.811 20.3081C130.207 20.6474 130.659 20.9112 131.168 21.0997C131.696 21.2882 132.261 21.3824 132.864 21.3824C133.58 21.3824 134.221 21.2599 134.787 21.0149C135.352 20.751 135.833 20.4024 136.228 19.9689C136.624 19.5354 136.926 19.0453 137.133 18.4987C137.359 17.9333 137.472 17.3396 137.472 16.7176C137.472 16.0957 137.359 15.502 137.133 14.9365C136.926 14.3523 136.624 13.8434 136.228 13.4099C135.833 12.9575 135.352 12.6089 134.787 12.3638C134.221 12.1 133.58 11.968 132.864 11.968C132.242 11.968 131.677 12.0717 131.168 12.279C130.659 12.4675 130.207 12.7314 129.811 13.0706C129.434 13.4099 129.123 13.8151 128.878 14.2863C128.633 14.7386 128.463 15.2287 128.369 15.7564Z" fill="black"/>
<path d="M122.243 24.0123H119.331V21.892C118.841 22.627 118.191 23.2113 117.381 23.6448C116.589 24.0594 115.581 24.2668 114.356 24.2668C113.319 24.2668 112.358 24.0689 111.472 23.6731C110.586 23.2773 109.823 22.7401 109.182 22.0616C108.541 21.3831 108.042 20.5915 107.684 19.6868C107.326 18.7633 107.146 17.7738 107.146 16.7183C107.146 15.644 107.326 14.6451 107.684 13.7215C108.042 12.798 108.541 11.997 109.182 11.3185C109.823 10.6211 110.586 10.0839 111.472 9.70698C112.358 9.31118 113.319 9.11328 114.356 9.11328C115.581 9.11328 116.589 9.33003 117.381 9.76352C118.191 10.1782 118.841 10.7624 119.331 11.5164V9.396H122.243V24.0123ZM119.331 15.8984C119.256 15.3518 119.096 14.843 118.851 14.3718C118.606 13.8817 118.285 13.4671 117.89 13.1278C117.494 12.7697 117.032 12.487 116.504 12.2797C115.977 12.0724 115.402 11.9687 114.78 11.9687C114.064 11.9687 113.423 12.1006 112.857 12.3645C112.292 12.6095 111.811 12.9582 111.415 13.4105C111.02 13.844 110.718 14.3529 110.511 14.9372C110.303 15.5026 110.2 16.0963 110.2 16.7183C110.2 17.3403 110.303 17.934 110.511 18.4994C110.737 19.046 111.048 19.536 111.444 19.9695C111.84 20.403 112.32 20.7517 112.886 21.0155C113.451 21.2606 114.082 21.3831 114.78 21.3831C115.402 21.3831 115.977 21.2888 116.504 21.1004C117.032 20.893 117.494 20.6197 117.89 20.2805C118.285 19.9224 118.606 19.5172 118.851 19.0648C119.096 18.5936 119.256 18.0942 119.331 17.5664V15.8984Z" fill="black"/>
<path d="M93.9492 5.06836H97.0025V21.1831H106.219V24.0102H93.9492V5.06836Z" fill="black"/>
<path d="M31.2129 9.396H34.1248V11.7708C34.6526 10.9415 35.3028 10.2913 36.0756 9.82007C36.8672 9.34888 37.7719 9.11328 38.7896 9.11328C39.9016 9.11328 40.8252 9.40542 41.5602 9.9897C42.2953 10.5551 42.823 11.3185 43.1434 12.2797C43.6712 11.2996 44.3591 10.5269 45.2072 9.96142C46.0554 9.396 47.0449 9.11328 48.1757 9.11328C48.9108 9.11328 49.5705 9.24522 50.1547 9.50908C50.739 9.77295 51.2291 10.1499 51.6249 10.6399C52.0395 11.1111 52.3505 11.6766 52.5578 12.3362C52.784 12.9959 52.8971 13.7121 52.8971 14.4849V24.0123H49.9851V15.2765C49.9851 14.2021 49.7118 13.3823 49.1652 12.8168C48.6375 12.2326 47.959 11.9404 47.1297 11.9404C46.6208 11.9404 46.1402 12.0818 45.6879 12.3645C45.2544 12.6284 44.8774 12.977 44.557 13.4105C44.2366 13.844 43.9821 14.3435 43.7937 14.9089C43.624 15.4555 43.5298 16.0115 43.511 16.5769V24.0123H40.599V15.2765C40.599 14.2021 40.3257 13.3823 39.7791 12.8168C39.2514 12.2326 38.5729 11.9404 37.7436 11.9404C37.2347 11.9404 36.7635 12.0818 36.33 12.3645C35.8965 12.6284 35.5196 12.977 35.1992 13.4105C34.8787 13.844 34.6243 14.3435 34.4358 14.9089C34.2474 15.4555 34.1437 16.0115 34.1248 16.5769V24.0123H31.2129V9.396Z" fill="black"/>
<path d="M27.9829 24.0109H25.0709V21.4382C24.5243 22.324 23.7987 23.0214 22.894 23.5302C21.9893 24.0391 20.9716 24.2936 19.8407 24.2936C19.0303 24.2936 18.3046 24.1616 17.6638 23.8978C17.0418 23.6151 16.5047 23.2381 16.0523 22.7669C15.6188 22.2769 15.2796 21.7114 15.0346 21.0706C14.8084 20.411 14.6953 19.6948 14.6953 18.922V9.39453H17.6073V18.1304C17.6073 19.2047 17.9088 20.034 18.512 20.6183C19.1339 21.1837 19.9255 21.4664 20.8868 21.4664C21.4899 21.4664 22.0365 21.3345 22.5265 21.0706C23.0354 20.7879 23.4689 20.4298 23.827 19.9963C24.2039 19.544 24.4961 19.0445 24.7034 18.4979C24.9296 17.9325 25.0521 17.3671 25.0709 16.8016V9.39453H27.9829V24.0109Z" fill="black"/>
<path d="M0.480469 5.06836H3.53378V21.1831H12.7503V24.0102H0.480469V5.06836Z" fill="black"/>
<g clip-path="url(#clip0_15833_3234)">
<path d="M60.3677 0.451172C59.0665 0.451172 58.0117 1.50597 58.0117 2.80712V28.7226C58.0117 30.0237 59.0665 31.0785 60.3677 31.0785H86.2831C87.5843 31.0785 88.6391 30.0237 88.6391 28.7226V2.80712C88.6391 1.50597 87.5843 0.451172 86.2831 0.451172H60.3677ZM73.3254 22.751C71.9471 22.751 70.5998 22.3423 69.4538 21.5765C68.3078 20.8108 67.4146 19.7224 66.8872 18.4491C66.3597 17.1757 66.2217 15.7745 66.4906 14.4228C66.7595 13.071 67.4232 11.8293 68.3978 10.8547C69.3724 9.88008 70.6141 9.21638 71.9659 8.94749C73.3177 8.67861 74.7188 8.81661 75.9922 9.34405C77.2656 9.8715 78.3539 10.7647 79.1196 11.9107C79.8854 13.0567 80.2941 14.404 80.2941 15.7823C80.2941 17.6305 79.5599 19.403 78.253 20.7099C76.9461 22.0168 75.1736 22.751 73.3254 22.751Z" fill="#020203"/>
</g>
<defs>
<clipPath id="clip0_15833_3234">
<rect width="30.6274" height="30.6274" fill="white" transform="translate(58.0117 0.451172)"/>
</clipPath>
</defs>
</svg>
