<svg width="116" height="32" viewBox="0 0 116 32" fill="none" xmlns="http://www.w3.org/2000/svg">
<path d="M115.141 18.0617C115.141 18.6438 115.1 19.1427 115.017 19.5584H103.106C103.376 20.5146 103.896 21.2733 104.665 21.8346C105.434 22.3751 106.297 22.6453 107.253 22.6453C108.022 22.6453 108.781 22.4998 109.529 22.2088C110.277 21.897 110.901 21.4396 111.4 20.8368L114.3 23.2689C112.657 25.2852 110.257 26.2934 107.097 26.2934C105.6 26.2934 104.218 25.9296 102.95 25.2021C101.703 24.4538 100.705 23.456 99.9565 22.2088C99.229 20.9408 98.8652 19.5584 98.8652 18.0617C98.8652 16.5651 99.229 15.1931 99.9565 13.9459C100.705 12.6779 101.703 11.6801 102.95 10.9526C104.218 10.2042 105.6 9.83008 107.097 9.83008C108.594 9.83008 109.955 10.2042 111.182 10.9526C112.408 11.6801 113.375 12.6779 114.081 13.9459C114.788 15.1931 115.141 16.5651 115.141 18.0617ZM110.994 16.721C110.766 15.7024 110.298 14.9229 109.591 14.3824C108.905 13.8212 108.074 13.5406 107.097 13.5406C106.099 13.5406 105.236 13.8212 104.509 14.3824C103.781 14.9437 103.293 15.7232 103.043 16.721H110.994Z" fill="#1B1C33"/>
<path d="M96.0516 4.125V25.9514H92.0293V4.125H96.0516Z" fill="#1B1C33"/>
<path d="M75.0614 4.125V25.9514H71.0391V4.125H75.0614ZM84.6026 25.9514L76.4333 17.6886L83.7607 10.174H89.2797L81.7964 17.6886L90.1528 25.9514H84.6026Z" fill="#1B1C33"/>
<path d="M68.5657 13.6029C68.3786 13.5614 68.098 13.5406 67.7239 13.5406C66.4558 13.5406 65.4373 13.9875 64.6682 14.8813C63.899 15.7544 63.5145 16.8769 63.5145 18.2488V25.9504H59.4922V10.1731H63.5145V12.5116C64.0757 11.7009 64.7721 11.0565 65.6036 10.5784C66.4558 10.0795 67.4432 9.83008 68.5657 9.83008V13.6029Z" fill="#1B1C33"/>
<path d="M51.376 23.9549C49.9417 25.5139 48.0708 26.2934 45.7635 26.2934C44.3084 26.2934 42.9676 25.94 41.7412 25.2333C40.5355 24.5057 39.5689 23.5183 38.8414 22.2711C38.1346 21.0031 37.7812 19.6 37.7812 18.0617C37.7812 16.5235 38.1346 15.1308 38.8414 13.8836C39.5689 12.6155 40.5355 11.6282 41.7412 10.9214C42.9676 10.1939 44.3084 9.83008 45.7635 9.83008C48.0708 9.83008 49.9417 10.6096 51.376 12.1686V10.1731H55.4295V25.9504H51.376V23.9549ZM51.376 18.0617C51.376 17.1263 51.1681 16.2949 50.7524 15.5673C50.3366 14.819 49.765 14.2369 49.0374 13.8212C48.3099 13.4055 47.4992 13.1976 46.6054 13.1976C45.6907 13.1976 44.8696 13.4055 44.1421 13.8212C43.4145 14.2369 42.8429 14.819 42.4272 15.5673C42.0114 16.2949 41.8035 17.1263 41.8035 18.0617C41.8035 18.9972 42.0114 19.839 42.4272 20.5874C42.8429 21.3149 43.4145 21.8866 44.1421 22.3023C44.8696 22.718 45.6907 22.9259 46.6054 22.9259C47.4992 22.9259 48.3099 22.718 49.0374 22.3023C49.765 21.8866 50.3366 21.3149 50.7524 20.5874C51.1681 19.839 51.376 18.9972 51.376 18.0617Z" fill="#1B1C33"/>
<path d="M35.8923 18.0617C35.8923 19.6 35.5286 21.0031 34.801 22.2711C34.0943 23.5184 33.1277 24.5057 31.9012 25.2333C30.6956 25.94 29.3652 26.2934 27.9101 26.2934C25.6235 26.2934 23.7423 25.5139 22.2664 23.9549V31.9995H18.2441V10.1731H22.2664V12.1686C23.7423 10.6096 25.6235 9.83008 27.9101 9.83008C29.3652 9.83008 30.6956 10.1939 31.9012 10.9214C33.1277 11.6282 34.0943 12.6155 34.801 13.8836C35.5286 15.1308 35.8923 16.5235 35.8923 18.0617ZM31.8389 18.0617C31.8389 17.1263 31.631 16.2949 31.2153 15.5673C30.7995 14.819 30.2279 14.2369 29.5003 13.8212C28.7728 13.4055 27.9621 13.1976 27.0682 13.1976C26.1536 13.1976 25.3325 13.4055 24.605 13.8212C23.8774 14.2369 23.3058 14.819 22.89 15.5673C22.4743 16.2949 22.2664 17.1263 22.2664 18.0617C22.2664 18.9972 22.4743 19.839 22.89 20.5874C23.3058 21.3149 23.8774 21.8866 24.605 22.3023C25.3325 22.7181 26.1536 22.9259 27.0682 22.9259C27.9621 22.9259 28.7728 22.7181 29.5003 22.3023C30.2279 21.8866 30.7995 21.3149 31.2153 20.5874C31.631 19.839 31.8389 18.9972 31.8389 18.0617Z" fill="#1B1C33"/>
<path d="M0.691406 23.2378C0.816129 23.1131 1.61643 22.1361 3.09231 20.3068C3.50805 20.7849 4.05891 21.2422 4.74488 21.6788C5.45164 22.0945 6.14801 22.3855 6.83398 22.5518C7.51995 22.6973 8.10199 22.7701 8.58009 22.7701C9.26606 22.7701 9.81692 22.6558 10.2327 22.4271C10.6484 22.1984 10.8563 21.8555 10.8563 21.3981C10.8563 21.024 10.7108 20.7537 10.4197 20.5874C10.1495 20.4212 9.8481 20.2964 9.51551 20.2133C9.2037 20.1301 8.98544 20.0678 8.86072 20.0262C7.21854 19.5481 5.82581 19.1012 4.68252 18.6854C3.78868 18.3528 3.07152 17.8228 2.53106 17.0952C2.01138 16.3677 1.75155 15.5674 1.75155 14.6943C1.75155 14.5488 1.77233 14.3305 1.81391 14.0395C2.04256 12.5636 2.81169 11.5035 4.12127 10.8591C5.43085 10.1939 6.91713 9.86133 8.58009 9.86133C9.68181 9.86133 10.8043 10.0172 11.9476 10.329C13.1117 10.6201 14.0783 11.015 14.8474 11.5139L13.1013 15.0061C12.4153 14.632 11.8229 14.3409 11.324 14.1331C10.8459 13.9252 10.3054 13.7693 9.70259 13.6654C9.05819 13.5406 8.49694 13.4783 8.01884 13.4783C7.33287 13.4783 6.81319 13.5926 6.45981 13.8213C6.12722 14.0499 5.96092 14.3305 5.96092 14.6631C5.96092 15.0789 6.14801 15.3907 6.52217 15.5986C6.91713 15.7856 7.71743 16.0247 8.92308 16.3157C8.86072 16.2949 9.17252 16.3781 9.85849 16.5652C11.6254 17.0225 12.9038 17.5525 13.6937 18.1554C14.5044 18.7582 14.9721 19.6312 15.0968 20.7745C15.1176 20.8993 15.128 21.0759 15.128 21.3046C15.128 22.1153 14.9097 22.8532 14.4732 23.5184C14.0575 24.1628 13.4754 24.7033 12.7271 25.1398C12.1866 25.4724 11.5215 25.7426 10.7316 25.9505C9.96243 26.1584 9.22449 26.2623 8.51773 26.2623C6.83398 26.2623 5.31652 26.0025 3.96537 25.4828C2.635 24.9423 1.54368 24.194 0.691406 23.2378Z" fill="#1B1C33"/>
<path d="M105.634 2.57783V6.76562H104.706V2.57783H103.036V1.72876H107.296V2.57783H105.634ZM108.72 3.39812V6.76562H107.792V1.72876H108.742L110.31 4.52062L111.879 1.72876H112.829V6.76562H111.9V3.39812L110.555 5.72227H110.065L108.72 3.39812ZM113.767 6.30511C113.767 6.1564 113.819 6.02928 113.925 5.92375C114.03 5.81342 114.157 5.75825 114.306 5.75825C114.46 5.75825 114.589 5.81102 114.695 5.91655C114.8 6.02209 114.853 6.15161 114.853 6.30511C114.853 6.45382 114.798 6.58094 114.688 6.68647C114.582 6.79201 114.455 6.84478 114.306 6.84478C114.157 6.84478 114.03 6.79201 113.925 6.68647C113.819 6.58094 113.767 6.45382 113.767 6.30511Z" fill="#1B1C33"/>
</svg>
