<svg width="170" height="30" viewBox="0 0 170 30" fill="none" xmlns="http://www.w3.org/2000/svg">
<path d="M12.1599 1.55078H26.5822L15.9789 17.2669H1.55664L12.1599 1.55078Z" fill="#007AFF"/>
<path d="M12.7905 18.7246L8.68359 24.8119H23.79L34.3933 9.0957H23.2438L16.7474 18.7246H12.7905Z" fill="#312ECB"/>
<path d="M48.0318 23.1816V8.15007H42.6045V4.55846H57.6095V8.15007H52.0225V23.1816H48.0318ZM58.7884 23.1816V9.10783H62.4332L62.5662 13.6306L61.9277 12.6994C62.1406 11.9723 62.4864 11.316 62.9653 10.7307C63.4442 10.1277 64.0029 9.65766 64.6414 9.32067C65.2976 8.98368 65.9805 8.81519 66.6899 8.81519C66.9915 8.81519 67.2841 8.84179 67.5679 8.895C67.8517 8.94821 68.0911 9.01029 68.2862 9.08123L67.2752 13.2315C67.0624 13.1251 66.8052 13.0364 66.5037 12.9655C66.2022 12.8768 65.8918 12.8325 65.5725 12.8325C65.1469 12.8325 64.7478 12.9123 64.3753 13.0719C64.0206 13.2138 63.7102 13.4266 63.4442 13.7104C63.1781 13.9765 62.9653 14.2957 62.8057 14.6682C62.6638 15.0406 62.5928 15.4486 62.5928 15.892V23.1816H58.7884ZM76.534 23.4477C75.0087 23.4477 73.6785 23.1373 72.5434 22.5165C71.4082 21.8958 70.5214 21.0444 69.8829 19.9625C69.2444 18.8806 68.9251 17.639 68.9251 16.2379C68.9251 15.1559 69.1025 14.1627 69.4572 13.2581C69.812 12.3536 70.3086 11.5732 70.9471 10.9169C71.5856 10.243 72.3394 9.72861 73.2085 9.37388C74.0953 9.00142 75.0531 8.81519 76.0818 8.81519C77.0395 8.81519 77.9263 8.99255 78.7422 9.34728C79.5581 9.68427 80.2587 10.172 80.844 10.8105C81.447 11.4313 81.9082 12.1674 82.2274 13.0187C82.5467 13.87 82.6886 14.8012 82.6531 15.8122L82.6265 16.9828H71.3195L70.7076 14.6682H79.5137L79.0881 15.1471V14.5618C79.0526 14.0829 78.893 13.6483 78.6092 13.2581C78.3431 12.8679 77.9973 12.5664 77.5716 12.3536C77.1459 12.1408 76.6671 12.0343 76.135 12.0343C75.3546 12.0343 74.6895 12.1851 74.1396 12.4866C73.6075 12.7881 73.1996 13.2315 72.9158 13.8168C72.632 14.4021 72.4901 15.1116 72.4901 15.9452C72.4901 16.7965 72.6675 17.5326 73.0222 18.1534C73.3947 18.7742 73.9091 19.2619 74.5653 19.6166C75.2393 19.9536 76.0286 20.1221 76.9331 20.1221C77.5539 20.1221 78.1214 20.0246 78.6358 19.8295C79.1502 19.6344 79.7 19.2974 80.2853 18.8185L82.0944 21.3459C81.58 21.8071 81.0125 22.1973 80.3917 22.5165C79.7709 22.818 79.1324 23.0486 78.4762 23.2082C77.8199 23.3679 77.1725 23.4477 76.534 23.4477ZM85.4449 23.1816V9.10783H89.0631L89.1695 11.9811L88.4246 12.3004C88.6197 11.6619 88.9656 11.0854 89.4622 10.5711C89.9765 10.039 90.5884 9.61332 91.2979 9.29407C92.0074 8.97481 92.7523 8.81519 93.5327 8.81519C94.5969 8.81519 95.4837 9.02802 96.1931 9.45369C96.9203 9.87937 97.4613 10.5267 97.816 11.3958C98.1885 12.2472 98.3747 13.3025 98.3747 14.5618V23.1816H94.5969V14.8544C94.5969 14.2159 94.5082 13.6838 94.3308 13.2581C94.1535 12.8325 93.8785 12.5221 93.5061 12.327C93.1513 12.1141 92.7079 12.0255 92.1758 12.0609C91.7502 12.0609 91.3511 12.1319 90.9786 12.2738C90.6239 12.3979 90.3135 12.5842 90.0475 12.8325C89.7992 13.0808 89.5952 13.3646 89.4356 13.6838C89.2937 14.0031 89.2227 14.3489 89.2227 14.7214V23.1816H87.3604C86.9525 23.1816 86.5889 23.1816 86.2696 23.1816C85.9504 23.1816 85.6755 23.1816 85.4449 23.1816ZM107.502 23.4477C106.278 23.4477 105.178 23.1373 104.203 22.5165C103.227 21.878 102.456 21.0178 101.888 19.9359C101.339 18.8362 101.064 17.5681 101.064 16.1314C101.064 14.7303 101.339 13.4798 101.888 12.3802C102.456 11.2805 103.219 10.4115 104.176 9.77295C105.152 9.13444 106.26 8.81519 107.502 8.81519C108.158 8.81519 108.788 8.9216 109.391 9.13444C110.012 9.32954 110.561 9.60445 111.04 9.95918C111.537 10.3139 111.936 10.713 112.238 11.1564C112.539 11.5821 112.708 12.0343 112.743 12.5132L111.785 12.6728V3.49428H115.563V23.1816H111.998L111.838 19.9359L112.583 20.0157C112.548 20.4591 112.388 20.8848 112.105 21.2927C111.821 21.7007 111.439 22.0731 110.961 22.4101C110.499 22.7294 109.967 22.9865 109.364 23.1816C108.779 23.359 108.158 23.4477 107.502 23.4477ZM108.353 20.3083C109.063 20.3083 109.684 20.131 110.216 19.7763C110.748 19.4215 111.164 18.9338 111.466 18.313C111.768 17.6922 111.918 16.965 111.918 16.1314C111.918 15.3156 111.768 14.5972 111.466 13.9765C111.164 13.338 110.748 12.8502 110.216 12.5132C109.684 12.1585 109.063 11.9811 108.353 11.9811C107.644 11.9811 107.023 12.1585 106.491 12.5132C105.977 12.8502 105.569 13.338 105.267 13.9765C104.983 14.5972 104.841 15.3156 104.841 16.1314C104.841 16.965 104.983 17.6922 105.267 18.313C105.569 18.9338 105.977 19.4215 106.491 19.7763C107.023 20.131 107.644 20.3083 108.353 20.3083ZM119.778 23.1816V4.55846H123.769V19.59H132.203V23.1816H119.778ZM136.284 29.3007L139.37 22.0642L139.423 24.2458L132.559 9.10783H136.843L140.275 17.2222C140.416 17.5237 140.549 17.8785 140.674 18.2864C140.816 18.6766 140.931 19.0579 141.02 19.4304L140.381 19.6964C140.487 19.3949 140.612 19.0491 140.753 18.6589C140.895 18.2687 141.037 17.8519 141.179 17.4085L144.132 9.10783H148.442L142.536 23.1816L140.115 29.3007H136.284ZM151.566 23.1816V8.12347C151.566 7.25439 151.761 6.46512 152.151 5.75566C152.542 5.04621 153.074 4.48751 153.748 4.07958C154.439 3.67164 155.246 3.46767 156.169 3.46767C156.789 3.46767 157.375 3.57409 157.925 3.78693C158.474 3.98203 158.944 4.25694 159.335 4.61167L158.217 7.37854C157.987 7.23665 157.747 7.12136 157.499 7.03268C157.268 6.92626 157.056 6.87305 156.86 6.87305C156.523 6.87305 156.24 6.93513 156.009 7.05929C155.796 7.1657 155.637 7.3342 155.53 7.56477C155.424 7.77761 155.371 8.05252 155.371 8.38951V23.1816H153.482C153.074 23.1816 152.71 23.1816 152.391 23.1816C152.072 23.1816 151.797 23.1816 151.566 23.1816ZM149.464 12.6462V9.45369H158.404V12.6462H149.464ZM162.354 23.1816V5.54283H166.132V23.1816H162.354ZM159.721 12.4866V9.10783H169.006V12.4866H159.721Z" fill="black"/>
</svg>
