<svg width="135" height="25" viewBox="0 0 135 25" fill="none" xmlns="http://www.w3.org/2000/svg">
<path d="M126.442 22.4506C124.434 22.4506 122.919 21.8633 121.896 20.6888C120.873 19.4954 120.361 17.9704 120.361 16.1139C120.361 14.409 120.721 12.8556 121.441 11.4538C122.18 10.052 123.212 8.94376 124.538 8.12918C125.864 7.29567 127.389 6.87891 129.113 6.87891C131.008 6.87891 132.4 7.28619 133.29 8.10077C134.2 8.8964 134.654 9.872 134.654 11.0276C134.654 11.8232 134.436 12.5715 134.001 13.2724C133.565 13.9733 132.883 14.5416 131.955 14.9773C131.046 15.413 129.899 15.6309 128.517 15.6309H123.658L123.629 15.8582C123.61 15.9908 123.601 16.1802 123.601 16.4265C123.601 17.3358 123.885 18.1125 124.453 18.7566C125.04 19.3817 125.817 19.6943 126.783 19.6943C127.56 19.6943 128.27 19.4954 128.914 19.0975C129.558 18.6997 130.06 18.1693 130.42 17.5063H133.802C133.196 18.9649 132.267 20.1584 131.017 21.0866C129.767 21.9959 128.242 22.4506 126.442 22.4506ZM128.46 13.3576C129.483 13.3576 130.231 13.1587 130.705 12.7609C131.178 12.3441 131.415 11.8611 131.415 11.3117C131.415 10.8002 131.197 10.3645 130.761 10.0046C130.345 9.62573 129.682 9.43629 128.772 9.43629C127.541 9.43629 126.509 9.78675 125.675 10.4877C124.841 11.1886 124.311 12.1452 124.084 13.3576H128.46Z" fill="black"/>
<path d="M108.7 22.622C107.09 22.622 105.859 22.1105 105.006 21.0876C104.173 20.0457 103.756 18.6533 103.756 16.9105C103.756 15.073 104.087 13.4059 104.75 11.9094C105.432 10.3939 106.351 9.20044 107.507 8.32904C108.662 7.45763 109.941 7.02193 111.343 7.02193C112.65 7.02193 113.625 7.32503 114.27 7.93122C114.933 8.51848 115.368 9.17203 115.577 9.89189H115.804L117.282 1.05469H120.748L117.196 22.3947H113.73L114.213 19.6384H113.985C113.474 20.4151 112.782 21.1065 111.911 21.7127C111.059 22.3189 109.988 22.622 108.7 22.622ZM110.377 19.8373C111.229 19.8373 112.015 19.5531 112.735 18.9848C113.455 18.4165 114.023 17.6493 114.44 16.6832C114.876 15.6981 115.094 14.6278 115.094 13.4722C115.094 12.4114 114.838 11.5495 114.326 10.8864C113.834 10.2234 113.076 9.89189 112.053 9.89189C111.182 9.89189 110.377 10.176 109.638 10.7443C108.918 11.2937 108.35 12.0515 107.933 13.0176C107.516 13.9837 107.308 15.0635 107.308 16.2569C107.308 17.3178 107.554 18.1797 108.047 18.8427C108.558 19.5058 109.335 19.8373 110.377 19.8373Z" fill="black"/>
<path d="M99.3951 7.39033H102.833L100.333 22.3937H96.8945L99.3951 7.39033ZM101.498 4.74769C101.005 4.74769 100.607 4.59614 100.304 4.29304C100.001 3.971 99.8497 3.57319 99.8497 3.0996C99.8497 2.4934 100.087 1.95351 100.56 1.47992C101.034 1.00633 101.583 0.769531 102.208 0.769531C102.72 0.769531 103.127 0.930552 103.43 1.25259C103.733 1.55569 103.885 1.94404 103.885 2.41763C103.885 3.02382 103.638 3.56372 103.146 4.03731C102.672 4.5109 102.123 4.74769 101.498 4.74769Z" fill="black"/>
<path d="M91.3842 17.4504C91.2706 18.1324 91.2137 18.5776 91.2137 18.7859C91.2137 19.2027 91.3463 19.5153 91.6116 19.7237C91.8768 19.9131 92.3598 20.0078 93.0607 20.0078C93.3828 20.0078 93.828 19.9605 94.3963 19.8657L93.9985 22.281C93.8848 22.3189 93.5533 22.3663 93.0039 22.4231C92.4546 22.48 91.9241 22.5084 91.4127 22.5084C89.9919 22.5084 89.0068 22.281 88.4574 21.8264C87.9081 21.3528 87.6334 20.6898 87.6334 19.8373C87.6334 19.3069 87.6902 18.7575 87.8039 18.1892L89.1678 10.0908H86.582L87.0083 7.39136H89.6225L90.4465 2.50391H93.8564L93.0607 7.39136H96.4706L96.0444 10.0908H92.6061L91.3842 17.4504Z" fill="black"/>
<path d="M73.0079 1.25195H76.4746L75.0254 9.83341H75.2527C75.7452 9.05672 76.4272 8.3937 77.2986 7.84433C78.189 7.29497 79.2024 7.02028 80.3391 7.02028C81.9493 7.02028 83.1048 7.47493 83.8057 8.38422C84.5067 9.29352 84.8571 10.4301 84.8571 11.7941C84.8571 12.3624 84.8192 12.8454 84.7435 13.2433L83.209 22.393H79.7708L81.2199 13.7832C81.2768 13.4043 81.3052 13.0633 81.3052 12.7602C81.3052 11.8509 81.0589 11.15 80.5664 10.6575C80.0739 10.1649 79.3729 9.91866 78.4636 9.91866C77.4407 9.91866 76.5503 10.2691 75.7926 10.97C75.0538 11.6709 74.5897 12.6087 74.4002 13.7832L72.9511 22.393H69.4844L73.0079 1.25195Z" fill="black"/>
<path d="M60.604 22.6196C58.577 22.6196 57.071 22.0418 56.0859 20.8863C55.1198 19.7118 54.6367 18.2436 54.6367 16.4819C54.6367 14.8338 54.9872 13.2899 55.6881 11.8502C56.4079 10.3915 57.4214 9.22646 58.7285 8.35506C60.0357 7.46471 61.5227 7.01953 63.1898 7.01953C65.1599 7.01953 66.628 7.58784 67.5942 8.72446C68.5603 9.86107 69.0244 11.2818 68.9865 12.9868H65.6335C65.6524 12.0585 65.4156 11.3103 64.9231 10.742C64.4495 10.1547 63.7297 9.86108 62.7635 9.86108C61.8732 9.86108 61.0586 10.1452 60.3198 10.7135C59.5999 11.2818 59.0316 12.0585 58.6149 13.0436C58.2171 14.0287 58.0182 15.1274 58.0182 16.3398C58.0182 17.3627 58.2644 18.1963 58.757 18.8403C59.2684 19.4844 60.0451 19.8065 61.087 19.8065C62.0531 19.8065 62.8677 19.5128 63.5307 18.9256C64.2127 18.3383 64.7053 17.5806 65.0084 16.6524H68.3614C67.8309 18.3573 66.8932 19.7781 65.5482 20.9147C64.2222 22.0513 62.5741 22.6196 60.604 22.6196Z" fill="black"/>
<path d="M45.5321 22.4506C43.524 22.4506 42.0086 21.8633 40.9856 20.6888C39.9627 19.4954 39.4512 17.9704 39.4512 16.1139C39.4512 14.409 39.8111 12.8556 40.531 11.4538C41.2698 10.052 42.3022 8.94376 43.6282 8.12918C44.9543 7.29567 46.4793 6.87891 48.2031 6.87891C50.0975 6.87891 51.4898 7.28619 52.3802 8.10077C53.2895 8.8964 53.7441 9.872 53.7441 11.0276C53.7441 11.8232 53.5263 12.5715 53.0906 13.2724C52.6549 13.9733 51.9729 14.5416 51.0447 14.9773C50.1354 15.413 48.9893 15.6309 47.6064 15.6309H42.7474L42.7189 15.8582C42.7 15.9908 42.6905 16.1802 42.6905 16.4265C42.6905 17.3358 42.9747 18.1125 43.543 18.7566C44.1302 19.3817 44.9069 19.6943 45.8731 19.6943C46.6497 19.6943 47.3601 19.4954 48.0042 19.0975C48.6483 18.6997 49.1503 18.1693 49.5102 17.5063H52.8917C52.2855 18.9649 51.3572 20.1584 50.107 21.0866C48.8567 21.9959 47.3317 22.4506 45.5321 22.4506ZM47.5496 13.3576C48.5725 13.3576 49.3208 13.1587 49.7944 12.7609C50.268 12.3441 50.5048 11.8611 50.5048 11.3117C50.5048 10.8002 50.2869 10.3645 49.8512 10.0046C49.4345 9.62573 48.7714 9.43629 47.8621 9.43629C46.6308 9.43629 45.5984 9.78675 44.7649 10.4877C43.9313 11.1886 43.4009 12.1452 43.1736 13.3576H47.5496Z" fill="black"/>
<path d="M34.3842 17.4504C34.2706 18.1324 34.2137 18.5776 34.2137 18.7859C34.2137 19.2027 34.3464 19.5153 34.6116 19.7237C34.8768 19.9131 35.3598 20.0078 36.0607 20.0078C36.3828 20.0078 36.828 19.9605 37.3963 19.8657L36.9985 22.281C36.8848 22.3189 36.5533 22.3663 36.0039 22.4231C35.4546 22.48 34.9241 22.5084 34.4127 22.5084C32.9919 22.5084 32.0068 22.281 31.4574 21.8264C30.9081 21.3528 30.6334 20.6898 30.6334 19.8373C30.6334 19.3069 30.6902 18.7575 30.8039 18.1892L32.1678 10.0908H29.582L30.0083 7.39136H32.6225L33.4465 2.50391H36.8564L36.0607 7.39136H39.4706L39.0444 10.0908H35.6061L34.3842 17.4504Z" fill="black"/>
<g clip-path="url(#clip0_15833_3262)">
<path d="M15.5089 1.08203H9.4441C9.24918 3.35122 8.25866 5.47871 6.64728 7.08918C5.0359 8.69964 2.9072 9.6896 0.636719 9.8844L0.636719 15.9457C2.90931 16.141 5.03969 17.1329 6.65135 18.7461C8.26301 20.3593 9.2522 22.49 9.4441 24.7616H15.5089C15.704 22.4931 16.6948 20.3665 18.3062 18.7571C19.9177 17.1478 22.0463 16.1592 24.3162 15.9659V9.90461C22.0431 9.70782 19.9126 8.71455 18.301 7.10022C16.6895 5.4859 15.7006 3.35436 15.5089 1.08203ZM20.5426 13.6828C18.882 14.322 17.373 15.3002 16.1118 16.5549C14.8506 17.8095 13.8649 19.3132 13.2177 20.9699L12.4765 22.9028L11.7285 20.9699C11.0857 19.312 10.1033 17.8067 8.84416 16.5506C7.58505 15.2946 6.0771 14.3154 4.41709 13.6761L2.46962 12.9218L4.41709 12.1742C6.07709 11.5335 7.58522 10.554 8.84525 9.29812C10.1053 8.04229 11.0895 6.53773 11.7352 4.88045L12.4832 2.94757L13.2245 4.88045C13.8694 6.53897 14.8533 8.04484 16.1134 9.30188C17.3734 10.5589 18.882 11.5395 20.5426 12.181L22.4833 12.9285L20.5426 13.6828Z" fill="#584BF7"/>
</g>
<defs>
<clipPath id="clip0_15833_3262">
<rect width="23.6795" height="23.6795" fill="white" transform="translate(0.636719 1.08203)"/>
</clipPath>
</defs>
</svg>
