<svg width="122" height="37" viewBox="0 0 122 37" fill="none" xmlns="http://www.w3.org/2000/svg">
<path d="M121.69 19.8245C121.69 20.6756 121.593 21.6136 121.4 22.6387C121.226 23.6444 120.916 24.5825 120.472 25.4528C120.046 26.3232 119.475 27.0485 118.76 27.6287C118.064 28.2089 117.184 28.499 116.12 28.499C115.849 28.499 115.569 28.4797 115.278 28.441C114.988 28.4023 114.708 28.3346 114.437 28.2379C114.186 28.1412 113.954 28.0155 113.741 27.8608C113.528 27.6867 113.364 27.4643 113.248 27.1935L112.986 31.3712C112.967 31.8161 112.948 32.3479 112.928 32.9669C112.928 33.5858 112.851 34.1757 112.696 34.7366C112.561 35.2975 112.319 35.7713 111.971 36.1581C111.642 36.5643 111.159 36.7674 110.52 36.7674C110.153 36.7674 109.844 36.574 109.592 36.1872C109.341 35.8197 109.138 35.3458 108.983 34.7656C108.847 34.1853 108.741 33.5374 108.664 32.8218C108.586 32.1062 108.538 31.4196 108.519 30.762C108.499 30.1044 108.49 29.5048 108.49 28.9632C108.49 28.4217 108.49 28.0252 108.49 27.7738C108.49 26.4779 108.48 25.1917 108.461 23.9152C108.441 22.6193 108.432 21.3235 108.432 20.0276C108.432 19.7955 108.432 19.4377 108.432 18.9542C108.432 18.4513 108.451 17.9098 108.49 17.3295C108.528 16.7493 108.586 16.1497 108.664 15.5308C108.76 14.9119 108.896 14.351 109.07 13.8481C109.244 13.3259 109.466 12.9101 109.737 12.6006C110.008 12.2718 110.337 12.1074 110.724 12.1074C110.975 12.1074 111.197 12.1848 111.391 12.3395C111.604 12.4749 111.778 12.6586 111.913 12.8907C112.068 13.1035 112.193 13.3356 112.29 13.587C112.387 13.8385 112.464 14.0705 112.522 14.2833C113.122 13.6064 113.808 13.0938 114.582 12.7457C115.375 12.3975 116.216 12.2235 117.106 12.2235C118.035 12.2235 118.789 12.4846 119.369 13.0068C119.969 13.529 120.433 14.1769 120.762 14.9506C121.11 15.7242 121.352 16.5559 121.487 17.4456C121.622 18.3159 121.69 19.1089 121.69 19.8245ZM117.541 19.5924C117.541 19.3023 117.512 19.0122 117.454 18.7221C117.416 18.4126 117.329 18.1322 117.193 17.8808C117.077 17.61 116.903 17.3972 116.671 17.2425C116.439 17.0684 116.149 16.9814 115.801 16.9814C115.336 16.9814 114.843 17.1361 114.321 17.4456C113.818 17.7357 113.441 18.0742 113.19 18.461C113.093 18.6157 113.035 18.8672 113.015 19.2153C112.996 19.5634 112.986 19.8245 112.986 19.9986C112.986 20.134 112.986 20.3177 112.986 20.5498C113.006 20.7626 113.025 20.985 113.045 21.2171C113.064 21.4492 113.083 21.6716 113.103 21.8844C113.141 22.0971 113.19 22.2615 113.248 22.3776C113.306 22.5516 113.431 22.716 113.625 22.8708C113.818 23.0062 114.031 23.1319 114.263 23.2479C114.495 23.364 114.727 23.451 114.959 23.509C115.211 23.5671 115.423 23.5961 115.598 23.5961C116.004 23.5961 116.332 23.4413 116.584 23.1319C116.835 22.8224 117.029 22.4549 117.164 22.0294C117.319 21.6039 117.416 21.1687 117.454 20.7239C117.512 20.2597 117.541 19.8826 117.541 19.5924Z" fill="#303447"/>
<path d="M106.366 24.3804C106.366 24.7285 106.346 25.1831 106.308 25.7439C106.288 26.3048 106.211 26.8561 106.076 27.3976C105.94 27.9198 105.728 28.3743 105.437 28.7612C105.147 29.148 104.741 29.3414 104.219 29.3414C103.503 29.3414 102.952 29.1093 102.565 28.6451C102.178 28.1809 101.995 27.6007 102.014 26.9044C101.395 27.446 100.689 27.8715 99.8962 28.1809C99.1226 28.4904 98.3296 28.6451 97.5172 28.6451C96.9564 28.6451 96.4245 28.5097 95.9216 28.239C95.4187 27.9682 94.9739 27.62 94.5871 27.1945C94.2002 26.769 93.8908 26.2952 93.6587 25.773C93.4266 25.2314 93.3105 24.6995 93.3105 24.1773C93.3105 23.2489 93.591 22.4366 94.1519 21.7403C94.7321 21.044 95.4381 20.4541 96.2697 19.9706C97.1014 19.4677 97.9814 19.0712 98.9098 18.7811C99.8575 18.491 100.699 18.2976 101.434 18.2009C101.434 18.1042 101.434 18.0172 101.434 17.9398C101.453 17.8624 101.463 17.7754 101.463 17.6787C101.463 17.0791 101.298 16.5956 100.97 16.2281C100.641 15.8606 100.177 15.6769 99.5771 15.6769C99.0936 15.6769 98.6777 15.7639 98.3296 15.938C97.9814 16.0927 97.6526 16.2765 97.3432 16.4892C97.0337 16.6826 96.7243 16.8664 96.4148 17.0404C96.1053 17.1952 95.7572 17.2725 95.3704 17.2725C94.9449 17.2725 94.5774 17.1371 94.2679 16.8664C93.9778 16.5956 93.8328 16.2474 93.8328 15.8219C93.8328 15.1837 94.0165 14.6034 94.384 14.0812C94.7708 13.559 95.2447 13.1238 95.8056 12.7757C96.3858 12.4082 97.0047 12.1278 97.6623 11.9344C98.3392 11.7216 98.9582 11.6152 99.5191 11.6152C100.041 11.6152 100.563 11.6829 101.086 11.8183C101.608 11.9344 102.101 12.1278 102.565 12.3986C103.029 12.65 103.445 12.9691 103.813 13.3559C104.2 13.7234 104.509 14.1586 104.741 14.6615C105.089 15.3771 105.37 16.1411 105.583 16.9534C105.795 17.7464 105.96 18.5684 106.076 19.4194C106.192 20.2511 106.269 21.0924 106.308 21.9434C106.346 22.7751 106.366 23.5874 106.366 24.3804ZM101.724 23.452L101.637 21.4792C101.598 21.4792 101.56 21.4792 101.521 21.4792C101.482 21.4599 101.443 21.4502 101.405 21.4502C101.153 21.4502 100.834 21.5179 100.447 21.6533C100.08 21.7693 99.7221 21.9434 99.374 22.1755C99.0259 22.3883 98.7261 22.63 98.4746 22.9008C98.2425 23.1716 98.1265 23.452 98.1265 23.7421C98.1265 24.0129 98.2232 24.1967 98.4166 24.2934C98.61 24.3901 98.8324 24.4384 99.0839 24.4384C99.5094 24.4384 99.9639 24.332 100.447 24.1193C100.931 23.8872 101.356 23.6648 101.724 23.452Z" fill="#303447"/>
<path d="M93.1876 9.26441C93.1876 9.36112 93.0909 9.64156 92.8974 10.1058C92.7234 10.5699 92.4816 11.1405 92.1721 11.8174C91.8627 12.4944 91.5049 13.2584 91.0987 14.1094C90.7119 14.941 90.3057 15.8017 89.8802 16.6914C89.4547 17.5618 89.0389 18.4224 88.6327 19.2735C88.2266 20.1245 87.8494 20.8981 87.5013 21.5944C87.1725 22.2713 86.892 22.8516 86.6599 23.3351C86.4278 23.7993 86.2828 24.0894 86.2247 24.2054C86.8243 24.012 87.4336 23.8573 88.0525 23.7413C88.6907 23.6059 89.329 23.5382 89.9673 23.5382C90.2767 23.5382 90.6055 23.5672 90.9537 23.6252C91.3018 23.6639 91.6209 23.7606 91.911 23.9153C92.2205 24.0507 92.4719 24.2441 92.6653 24.4956C92.8781 24.7277 92.9845 25.0468 92.9845 25.4529C92.9845 25.8785 92.8394 26.2653 92.5493 26.6134C92.2592 26.9422 91.882 27.2323 91.4178 27.4838C90.973 27.7352 90.4605 27.948 89.8802 28.122C89.3 28.2961 88.7198 28.4412 88.1395 28.5572C87.5593 28.6733 87.0081 28.7506 86.4859 28.7893C85.9636 28.8473 85.5285 28.8763 85.1803 28.8763C84.7355 28.8763 84.2423 28.857 83.7007 28.8183C83.1785 28.7796 82.6756 28.6733 82.1921 28.4992C81.7086 28.3251 81.3024 28.0737 80.9736 27.7449C80.6642 27.3967 80.5094 26.9132 80.5094 26.2943C80.5094 25.8688 80.6255 25.2982 80.8576 24.5826C81.109 23.8476 81.3991 23.103 81.7279 22.3487C82.0567 21.5751 82.3952 20.8401 82.7433 20.1438C83.1108 19.4282 83.4009 18.8673 83.6137 18.4611C84.2713 17.2426 84.9289 16.0338 85.5865 14.8347C86.2634 13.6162 86.921 12.388 87.5593 11.1502C86.8823 11.537 86.1087 11.8948 85.2383 12.2236C84.368 12.5331 83.546 12.6878 82.7724 12.6878C82.5016 12.6878 82.2115 12.6491 81.902 12.5717C81.6119 12.4944 81.3411 12.388 81.0897 12.2526C80.8576 12.0979 80.6642 11.9045 80.5094 11.6724C80.3547 11.4403 80.2773 11.1695 80.2773 10.8601C80.2773 10.3572 80.4417 9.893 80.7705 9.46749C81.0993 9.04199 81.5248 8.65516 82.0471 8.30702C82.5886 7.95888 83.1882 7.64942 83.8458 7.37865C84.5227 7.10787 85.1997 6.88545 85.8766 6.71138C86.5535 6.53731 87.1918 6.40192 87.7914 6.30521C88.4103 6.20851 88.9325 6.16016 89.358 6.16016C90.4798 6.16016 91.3985 6.38258 92.1141 6.82743C92.8297 7.27227 93.1876 8.0846 93.1876 9.26441Z" fill="#303447"/>
<path d="M75.078 29.283C74.7492 29.283 74.4881 29.1283 74.2947 28.8189C74.1013 28.5287 73.9562 28.1903 73.8595 27.8034C73.7628 27.4166 73.6951 27.0298 73.6565 26.643C73.6371 26.2368 73.6274 25.9274 73.6274 25.7146C73.6274 25.1344 73.6565 24.5541 73.7145 23.9739C73.7918 23.3937 73.8692 22.8134 73.9466 22.2332C74.0433 21.653 74.1206 21.0727 74.1787 20.4925C74.256 19.9123 74.2947 19.332 74.2947 18.7518C74.2947 18.5197 74.285 18.2683 74.2657 17.9975C74.2464 17.7267 74.198 17.4753 74.1206 17.2432C74.0626 16.9917 73.9562 16.7887 73.8015 16.6339C73.6468 16.4792 73.4437 16.4018 73.1923 16.4018C73.0182 16.4018 72.8248 16.5469 72.612 16.837C72.3993 17.1078 72.1962 17.4269 72.0028 17.7944C71.8287 18.1425 71.674 18.5004 71.5386 18.8678C71.4226 19.216 71.3645 19.4771 71.3645 19.6512C71.3645 20.0767 71.3645 20.5118 71.3645 20.9567C71.3839 21.3822 71.3935 21.8174 71.3935 22.2622V23.9449C71.3742 24.293 71.3452 24.6508 71.3065 25.0183C71.2678 25.3858 71.2098 25.7436 71.1324 26.0918C71.0744 26.4399 70.9874 26.7784 70.8713 27.1072C70.7553 27.4166 70.6006 27.6971 70.4071 27.9485C70.2331 28.1806 70.0203 28.374 69.7689 28.5287C69.5175 28.6835 69.2177 28.7608 68.8695 28.7608C68.4827 28.7608 68.1636 28.6351 67.9121 28.3837C67.6607 28.1322 67.4576 27.8131 67.3029 27.4263C67.1482 27.0201 67.0321 26.5753 66.9548 26.0918C66.8967 25.5889 66.8484 25.1054 66.8097 24.6412C66.7904 24.1576 66.7807 23.7225 66.7807 23.3356C66.8 22.9295 66.8097 22.6103 66.8097 22.3783V21.0147C66.8097 20.2797 66.7904 19.5544 66.7517 18.8388C66.7323 18.1232 66.7227 17.4076 66.7227 16.692C66.7227 16.3051 66.7227 15.8119 66.7227 15.2124C66.742 14.6128 66.8194 14.0325 66.9548 13.4717C67.0901 12.8914 67.3126 12.3982 67.622 11.9921C67.9315 11.5859 68.386 11.3828 68.9856 11.3828C69.2563 11.3828 69.4981 11.4698 69.7109 11.6439C69.9236 11.818 70.1074 12.0307 70.2621 12.2822C70.4362 12.5336 70.5715 12.8044 70.6683 13.0945C70.7843 13.3846 70.8713 13.6361 70.9294 13.8488C71.1228 13.578 71.3452 13.3169 71.5966 13.0655C71.8674 12.8141 72.1672 12.5916 72.496 12.3982C72.8248 12.2048 73.1923 12.0501 73.5984 11.934C74.0046 11.818 74.4688 11.76 74.991 11.76C75.9774 11.76 76.7414 12.0017 77.2829 12.4853C77.8438 12.9494 78.25 13.5394 78.5014 14.255C78.7722 14.9513 78.9366 15.7056 78.9946 16.5179C79.0526 17.3302 79.0816 18.0652 79.0816 18.7228C79.0816 19.0516 79.0526 19.5448 78.9946 20.2024C78.9366 20.8406 78.8399 21.5563 78.7045 22.3492C78.5885 23.1229 78.4241 23.9255 78.2113 24.7572C77.9985 25.5695 77.7471 26.3142 77.457 26.9911C77.1669 27.6681 76.8187 28.2193 76.4126 28.6448C76.0257 29.0703 75.5809 29.283 75.078 29.283Z" fill="#303447"/>
<path d="M65.3801 23.3068C65.3801 23.9644 65.1674 24.6124 64.7419 25.2506C64.3357 25.8695 63.8135 26.4304 63.1753 26.9333C62.5563 27.4168 61.8891 27.8133 61.1735 28.1228C60.4578 28.4129 59.8002 28.558 59.2007 28.558C58.1756 28.558 57.2569 28.3065 56.4445 27.8036C55.6516 27.2814 54.9843 26.6238 54.4427 25.8308C53.9012 25.0379 53.4853 24.1675 53.1952 23.2198C52.9245 22.2527 52.7891 21.3147 52.7891 20.4057C52.7891 19.4386 52.9245 18.4038 53.1952 17.3014C53.466 16.199 53.8722 15.1835 54.4137 14.2552C54.9746 13.3268 55.6709 12.5532 56.5026 11.9342C57.3536 11.3153 58.3593 11.0059 59.5198 11.0059C60.1774 11.0059 60.806 11.1219 61.4055 11.354C62.0051 11.5668 62.5273 11.8762 62.9722 12.2824C63.417 12.6885 63.7748 13.1721 64.0456 13.733C64.3164 14.2939 64.4518 14.9224 64.4518 15.6187C64.4518 16.5278 64.2584 17.3788 63.8715 18.1718C63.4847 18.9647 62.9722 19.6514 62.3339 20.2316C61.6957 20.8118 60.9607 21.2857 60.129 21.6532C59.2974 22.0013 58.4463 22.1947 57.576 22.2334C57.6534 22.7943 57.8758 23.2005 58.2433 23.4519C58.6301 23.7033 59.0846 23.829 59.6068 23.829C59.9936 23.829 60.3708 23.7323 60.7383 23.5389C61.1058 23.3455 61.4636 23.1328 61.8117 22.9007C62.1598 22.6492 62.4983 22.4268 62.8271 22.2334C63.1753 22.04 63.5234 21.9433 63.8715 21.9433C64.2584 21.9433 64.6065 22.069 64.916 22.3204C65.2254 22.5719 65.3801 22.9007 65.3801 23.3068ZM60.6803 16.199C60.6803 15.9475 60.6126 15.6864 60.4772 15.4156C60.3418 15.1449 60.129 15.0095 59.8389 15.0095C59.4134 15.0095 59.0556 15.1255 58.7655 15.3576C58.4754 15.5704 58.2336 15.8508 58.0402 16.199C57.8468 16.5278 57.692 16.8856 57.576 17.2724C57.4793 17.6592 57.4213 18.017 57.4019 18.3458C57.6727 18.2878 57.9918 18.2104 58.3593 18.1137C58.7461 18.017 59.1039 17.8913 59.4327 17.7366C59.7809 17.5625 60.071 17.3498 60.3031 17.0983C60.5545 16.8469 60.6803 16.5471 60.6803 16.199Z" fill="#303447"/>
<path d="M52.6661 9.26441C52.6661 9.36112 52.5694 9.64156 52.376 10.1058C52.2019 10.5699 51.9601 11.1405 51.6507 11.8174C51.3412 12.4944 50.9834 13.2584 50.5772 14.1094C50.1904 14.941 49.7842 15.8017 49.3587 16.6914C48.9332 17.5618 48.5174 18.4224 48.1112 19.2735C47.7051 20.1245 47.3279 20.8981 46.9798 21.5944C46.651 22.2713 46.3705 22.8516 46.1384 23.3351C45.9063 23.7993 45.7613 24.0894 45.7033 24.2054C46.3028 24.012 46.9121 23.8573 47.531 23.7413C48.1693 23.6059 48.8075 23.5382 49.4458 23.5382C49.7552 23.5382 50.084 23.5672 50.4322 23.6252C50.7803 23.6639 51.0994 23.7606 51.3896 23.9153C51.699 24.0507 51.9505 24.2441 52.1439 24.4956C52.3566 24.7277 52.463 25.0468 52.463 25.4529C52.463 25.8785 52.3179 26.2653 52.0278 26.6134C51.7377 26.9422 51.3605 27.2323 50.8964 27.4838C50.4515 27.7352 49.939 27.948 49.3587 28.122C48.7785 28.2961 48.1983 28.4412 47.618 28.5572C47.0378 28.6733 46.4866 28.7506 45.9644 28.7893C45.4422 28.8473 45.007 28.8763 44.6588 28.8763C44.214 28.8763 43.7208 28.857 43.1792 28.8183C42.657 28.7796 42.1542 28.6733 41.6706 28.4992C41.1871 28.3251 40.7809 28.0737 40.4521 27.7449C40.1427 27.3967 39.988 26.9132 39.988 26.2943C39.988 25.8688 40.104 25.2982 40.3361 24.5826C40.5875 23.8476 40.8776 23.103 41.2064 22.3487C41.5352 21.5751 41.8737 20.8401 42.2219 20.1438C42.5893 19.4282 42.8795 18.8673 43.0922 18.4611C43.7498 17.2426 44.4074 16.0338 45.065 14.8347C45.7419 13.6162 46.3995 12.388 47.0378 11.1502C46.3609 11.537 45.5872 11.8948 44.7169 12.2236C43.8465 12.5331 43.0245 12.6878 42.2509 12.6878C41.9801 12.6878 41.69 12.6491 41.3805 12.5717C41.0904 12.4944 40.8196 12.388 40.5682 12.2526C40.3361 12.0979 40.1427 11.9045 39.988 11.6724C39.8332 11.4403 39.7559 11.1695 39.7559 10.8601C39.7559 10.3572 39.9203 9.893 40.2491 9.46749C40.5779 9.04199 41.0034 8.65516 41.5256 8.30702C42.0671 7.95888 42.6667 7.64942 43.3243 7.37865C44.0012 7.10787 44.6782 6.88545 45.3551 6.71138C46.0321 6.53731 46.6703 6.40192 47.2699 6.30521C47.8888 6.20851 48.411 6.16016 48.8365 6.16016C49.9583 6.16016 50.877 6.38258 51.5926 6.82743C52.3083 7.27227 52.6661 8.0846 52.6661 9.26441Z" fill="#303447"/>
<g clip-path="url(#clip0_15833_3189)">
<path d="M0.00195312 17.9364H17.9505V-0.00195312C17.1984 4.48591 15.0645 8.62679 11.8468 11.8427C8.62907 15.0585 4.48812 17.1889 0.00195312 17.9364Z" fill="#FFA62B"/>
<path d="M17.9512 35.8963V17.9375H35.8998C31.4101 18.6848 27.2663 20.8177 24.048 24.0378C20.8297 27.2579 18.698 31.4041 17.9512 35.8963Z" fill="#FFA62B"/>
</g>
<defs>
<clipPath id="clip0_15833_3189">
<rect width="35.8972" height="35.8972" fill="white"/>
</clipPath>
</defs>
</svg>
