<svg width="134" height="37" viewBox="0 0 134 37" fill="none" xmlns="http://www.w3.org/2000/svg">
<g clip-path="url(#clip0_15830_382)">
<rect width="133" height="36" transform="translate(0.636719 0.765625)" fill="white"/>
<path d="M20.4595 29.6659C20.4918 26.3616 19.6541 23.6745 18.5885 23.6641C17.5228 23.6537 16.6328 26.3239 16.6005 29.6281C16.5682 32.9324 17.4059 35.6195 18.4715 35.6299C19.5372 35.6404 20.4272 32.9702 20.4595 29.6659Z" fill="#312ECB"/>
<path d="M14.2784 28.9147C16.0921 26.1525 16.8403 23.4391 15.9495 22.8541C15.0587 22.2692 12.8662 24.0342 11.0525 26.7964C9.23876 29.5586 8.49061 32.272 9.38139 32.857C10.2722 33.4419 12.4646 31.6769 14.2784 28.9147Z" fill="#312ECB"/>
<path d="M9.47759 24.9524C12.4968 23.6094 14.5933 21.7314 14.1601 20.7577C13.727 19.7839 10.9284 20.0833 7.90914 21.4263C4.88992 22.7693 2.79348 24.6473 3.22659 25.621C3.6597 26.5948 6.45837 26.2954 9.47759 24.9524Z" fill="#312ECB"/>
<path d="M13.7974 18.0278C13.9595 16.9745 11.4434 15.7132 8.17744 15.2105C4.91143 14.7078 2.13242 15.1542 1.9703 16.2074C1.80819 17.2607 4.32436 18.522 7.59034 19.0247C10.8563 19.5274 13.6353 19.081 13.7974 18.0278Z" fill="#312ECB"/>
<path d="M14.9704 15.5171C15.6761 14.7186 14.241 12.2973 11.765 10.109C9.28901 7.92075 6.7097 6.79412 6.00397 7.59265C5.29824 8.39118 6.73334 10.8125 9.20938 13.0008C11.6854 15.1891 14.2647 16.3156 14.9704 15.5171Z" fill="#312ECB"/>
<path d="M17.3062 14.0503C18.3317 13.7602 18.4336 10.9473 17.5338 7.76777C16.6341 4.58818 15.0735 2.24585 14.048 2.53602C13.0226 2.82618 12.9207 5.63896 13.8204 8.81858C14.7202 11.9981 16.2808 14.3405 17.3062 14.0503Z" fill="#312ECB"/>
<path d="M23.646 8.91921C24.6083 5.75798 24.5619 2.94373 23.5424 2.6334C22.5229 2.32307 20.9164 4.63417 19.9541 7.79539C18.9919 10.9566 19.0383 13.7709 20.0578 14.0812C21.0773 14.3915 22.6838 12.0804 23.646 8.91921Z" fill="#312ECB"/>
<path d="M28.1776 13.1895C30.6959 11.05 32.1781 8.6572 31.4881 7.84506C30.7981 7.0329 28.1972 8.10892 25.6789 10.2483C23.1606 12.3878 21.6785 14.7806 22.3685 15.5927C23.0584 16.4049 25.6593 15.3289 28.1776 13.1895Z" fill="#312ECB"/>
<path d="M29.6762 19.2337C32.9515 18.7955 35.492 17.584 35.3507 16.5277C35.2094 15.4715 32.4397 14.9704 29.1645 15.4085C25.8893 15.8467 23.3487 17.0582 23.49 18.1145C23.6313 19.1708 26.401 19.6719 29.6762 19.2337Z" fill="#312ECB"/>
<path d="M33.9017 25.9222C34.3539 24.9572 32.2949 23.0382 29.3028 21.6359C26.3107 20.2337 23.5184 19.8792 23.0662 20.8442C22.614 21.8092 24.6729 23.7282 27.6651 25.1305C30.6572 26.5327 33.4495 26.8872 33.9017 25.9222Z" fill="#312ECB"/>
<path d="M27.6066 33.043C28.5088 32.4758 27.8142 29.7481 26.0554 26.9507C24.2965 24.1533 22.1392 22.3455 21.237 22.9127C20.3349 23.4799 21.0294 26.2075 22.7883 29.005C24.5472 31.8024 26.7044 33.6103 27.6066 33.043Z" fill="#312ECB"/>
<path d="M45.0367 28.7656V28.3036L54.9767 11.7696H45.7367V8.60562H60.8147V9.08162L50.9307 25.5876H60.5767V28.7656H45.0367ZM71.0371 29.1856C69.5065 29.1856 68.1625 28.8543 67.0051 28.1916C65.8478 27.529 64.9425 26.6096 64.2891 25.4336C63.6451 24.2576 63.3231 22.9043 63.3231 21.3736C63.3231 19.7216 63.6405 18.289 64.2751 17.0756C64.9098 15.853 65.7918 14.9056 66.9211 14.2336C68.0505 13.5616 69.3571 13.2256 70.8411 13.2256C72.4091 13.2256 73.7391 13.5943 74.8311 14.3316C75.9325 15.0596 76.7491 16.091 77.2811 17.4256C77.8131 18.7603 78.0138 20.333 77.8831 22.1436H74.5371V20.9116C74.5278 19.269 74.2385 18.0696 73.6691 17.3136C73.0998 16.5576 72.2038 16.1796 70.9811 16.1796C69.5998 16.1796 68.5731 16.609 67.9011 17.4676C67.2291 18.317 66.8931 19.563 66.8931 21.2056C66.8931 22.7363 67.2291 23.9216 67.9011 24.7616C68.5731 25.6016 69.5531 26.0216 70.8411 26.0216C71.6718 26.0216 72.3858 25.8396 72.9831 25.4756C73.5898 25.1023 74.0565 24.5656 74.3831 23.8656L77.7151 24.8736C77.1365 26.2363 76.2405 27.2956 75.0271 28.0516C73.8231 28.8076 72.4931 29.1856 71.0371 29.1856ZM65.8291 22.1436V19.5956H76.2311V22.1436H65.8291ZM91.0547 28.7656V21.4856C91.0547 21.0096 91.0221 20.4823 90.9567 19.9036C90.8914 19.325 90.7374 18.7696 90.4947 18.2376C90.2614 17.6963 89.9067 17.253 89.4307 16.9076C88.9641 16.5623 88.3294 16.3896 87.5267 16.3896C87.0974 16.3896 86.6727 16.4596 86.2527 16.5996C85.8327 16.7396 85.4501 16.9823 85.1047 17.3276C84.7687 17.6636 84.4981 18.1303 84.2927 18.7276C84.0874 19.3156 83.9847 20.0716 83.9847 20.9956L81.9827 20.1416C81.9827 18.8536 82.2301 17.687 82.7247 16.6416C83.2287 15.5963 83.9661 14.7656 84.9367 14.1496C85.9074 13.5243 87.1021 13.2116 88.5207 13.2116C89.6407 13.2116 90.5647 13.3983 91.2927 13.7716C92.0207 14.145 92.5994 14.621 93.0287 15.1996C93.4581 15.7783 93.7754 16.3943 93.9807 17.0476C94.1861 17.701 94.3167 18.3216 94.3727 18.9096C94.4381 19.4883 94.4707 19.9596 94.4707 20.3236V28.7656H91.0547ZM80.5687 28.7656V13.6456H83.5787V18.3356H83.9847V28.7656H80.5687ZM98.4041 11.3496V8.25562H101.778V11.3496H98.4041ZM98.4041 28.7656V13.6456H101.778V28.7656H98.4041ZM114.834 28.7656C113.835 28.9523 112.855 29.0316 111.894 29.0036C110.942 28.985 110.088 28.8123 109.332 28.4856C108.576 28.1496 108.002 27.6223 107.61 26.9036C107.264 26.2503 107.082 25.583 107.064 24.9016C107.045 24.2203 107.036 23.4503 107.036 22.5916V9.44562H110.396V22.3956C110.396 23.0023 110.4 23.5343 110.41 23.9916C110.428 24.449 110.526 24.8223 110.704 25.1116C111.04 25.6716 111.576 25.9843 112.314 26.0496C113.051 26.115 113.891 26.0776 114.834 25.9376V28.7656ZM104.292 16.2916V13.6456H114.834V16.2916H104.292ZM128.543 28.7656V21.4856C128.543 21.0096 128.51 20.4823 128.445 19.9036C128.38 19.325 128.226 18.7696 127.983 18.2376C127.75 17.6963 127.395 17.253 126.919 16.9076C126.452 16.5623 125.818 16.3896 125.015 16.3896C124.586 16.3896 124.161 16.4596 123.741 16.5996C123.321 16.7396 122.938 16.9823 122.593 17.3276C122.257 17.6636 121.986 18.1303 121.781 18.7276C121.576 19.3156 121.473 20.0716 121.473 20.9956L119.471 20.1416C119.471 18.8536 119.718 17.687 120.213 16.6416C120.717 15.5963 121.454 14.7656 122.425 14.1496C123.396 13.5243 124.59 13.2116 126.009 13.2116C127.129 13.2116 128.053 13.3983 128.781 13.7716C129.509 14.145 130.088 14.621 130.517 15.1996C130.946 15.7783 131.264 16.3943 131.469 17.0476C131.674 17.701 131.805 18.3216 131.861 18.9096C131.926 19.4883 131.959 19.9596 131.959 20.3236V28.7656H128.543ZM118.057 28.7656V8.60562H121.067V19.2176H121.473V28.7656H118.057Z" fill="black"/>
</g>
<defs>
<clipPath id="clip0_15830_382">
<rect width="133" height="36" fill="white" transform="translate(0.636719 0.765625)"/>
</clipPath>
</defs>
</svg>
