<svg width="172" height="43" viewBox="0 0 172 43" fill="none" xmlns="http://www.w3.org/2000/svg">
<path d="M70.4324 17.3388H66.8592C66.7218 16.5753 66.466 15.9034 66.0919 15.3232C65.7178 14.7429 65.2597 14.2504 64.7176 13.8458C64.1755 13.4411 63.5685 13.1357 62.8967 12.9296C62.2324 12.7235 61.5262 12.6204 60.778 12.6204C59.4266 12.6204 58.2164 12.9601 57.1476 13.6396C56.0863 14.3192 55.2464 15.3155 54.628 16.6287C54.0172 17.9419 53.7118 19.5453 53.7118 21.4387C53.7118 23.3475 54.0172 24.9585 54.628 26.2717C55.2464 27.5849 56.0901 28.5774 57.159 29.2493C58.2279 29.9212 59.4304 30.2571 60.7665 30.2571C61.5071 30.2571 62.2095 30.1578 62.8738 29.9593C63.5456 29.7532 64.1526 29.4516 64.6947 29.0546C65.2368 28.6576 65.6949 28.1728 66.069 27.6001C66.4507 27.0199 66.7141 26.3556 66.8592 25.6074L70.4324 25.6189C70.2415 26.7718 69.8712 27.833 69.3215 28.8026C68.7794 29.7646 68.0808 30.5969 67.2257 31.2993C66.3782 31.9941 65.4086 32.5323 64.3168 32.9141C63.225 33.2958 62.0339 33.4867 60.7436 33.4867C58.7127 33.4867 56.9032 33.0057 55.3152 32.0437C53.7271 31.074 52.475 29.6883 51.5588 27.8865C50.6502 26.0846 50.1959 23.9354 50.1959 21.4387C50.1959 18.9345 50.654 16.7852 51.5702 14.991C52.4864 13.1892 53.7385 11.8073 55.3266 10.8453C56.9147 9.87562 58.7203 9.3908 60.7436 9.3908C61.9881 9.3908 63.1486 9.57022 64.2251 9.92907C65.3093 10.2803 66.2828 10.7994 67.1455 11.4866C68.0083 12.1661 68.7221 12.9983 69.2871 13.9832C69.8521 14.9605 70.2338 16.079 70.4324 17.3388ZM75.1288 9.71147V33.166H71.7045V9.71147H75.1288ZM84.4577 33.521C82.8086 33.521 81.3694 33.1431 80.1402 32.3873C78.911 31.6314 77.9566 30.574 77.2771 29.2149C76.5976 27.8559 76.2578 26.2678 76.2578 24.4507C76.2578 22.626 76.5976 21.0303 77.2771 19.6636C77.9566 18.297 78.911 17.2357 80.1402 16.4798C81.3694 15.724 82.8086 15.3461 84.4577 15.3461C86.1069 15.3461 87.5461 15.724 88.7753 16.4798C90.0045 17.2357 90.9589 18.297 91.6384 19.6636C92.3179 21.0303 92.6577 22.626 92.6577 24.4507C92.6577 26.2678 92.3179 27.8559 91.6384 29.2149C90.9589 30.574 90.0045 31.6314 88.7753 32.3873C87.5461 33.1431 86.1069 33.521 84.4577 33.521ZM84.4692 30.6465C85.5381 30.6465 86.4237 30.364 87.1262 29.799C87.8286 29.234 88.3477 28.482 88.6837 27.5429C89.0273 26.6038 89.199 25.5692 89.199 24.4393C89.199 23.3169 89.0273 22.2862 88.6837 21.3471C88.3477 20.4004 87.8286 19.6407 87.1262 19.0681C86.4237 18.4955 85.5381 18.2092 84.4692 18.2092C83.3927 18.2092 82.4994 18.4955 81.7893 19.0681C81.0869 19.6407 80.5639 20.4004 80.2203 21.3471C79.8844 22.2862 79.7164 23.3169 79.7164 24.4393C79.7164 25.5692 79.8844 26.6038 80.2203 27.5429C80.5639 28.482 81.0869 29.234 81.7893 29.799C82.4994 30.364 83.3927 30.6465 84.4692 30.6465ZM104.936 25.8708V15.5751H108.371V33.166H105.004V30.1197H104.821C104.416 31.0588 103.767 31.8414 102.874 32.4674C101.989 33.0858 100.885 33.3951 99.5644 33.3951C98.4345 33.3951 97.4343 33.1469 96.5639 32.6507C95.7011 32.1468 95.0216 31.4023 94.5254 30.4174C94.0367 29.4325 93.7924 28.2148 93.7924 26.7641V15.5751H97.2167V26.3518C97.2167 27.5505 97.5488 28.5049 98.213 29.2149C98.8773 29.925 99.74 30.28 100.801 30.28C101.443 30.28 102.08 30.1197 102.714 29.799C103.355 29.4783 103.886 28.9935 104.306 28.3445C104.733 27.6956 104.943 26.871 104.936 25.8708ZM116.87 33.5096C115.45 33.5096 114.182 33.1469 113.068 32.4216C111.961 31.6887 111.09 30.6465 110.457 29.2951C109.831 27.9361 109.518 26.306 109.518 24.4049C109.518 22.5038 109.834 20.8776 110.468 19.5262C111.109 18.1748 111.987 17.1403 113.102 16.4226C114.217 15.7049 115.48 15.3461 116.893 15.3461C117.985 15.3461 118.863 15.5293 119.527 15.8958C120.199 16.2546 120.718 16.6745 121.084 17.1555C121.459 17.6365 121.749 18.0603 121.955 18.4268H122.161V9.71147H125.585V33.166H122.241V30.4289H121.955C121.749 30.803 121.451 31.2306 121.062 31.7116C120.68 32.1926 120.153 32.6125 119.481 32.9713C118.809 33.3302 117.939 33.5096 116.87 33.5096ZM117.626 30.5892C118.611 30.5892 119.443 30.3296 120.122 29.8105C120.81 29.2836 121.329 28.5545 121.68 27.623C122.039 26.6916 122.218 25.6074 122.218 24.3706C122.218 23.149 122.043 22.0801 121.691 21.1639C121.34 20.2477 120.825 19.5338 120.145 19.0223C119.466 18.5107 118.626 18.255 117.626 18.255C116.595 18.255 115.736 18.5222 115.049 19.0566C114.362 19.5911 113.843 20.3202 113.492 21.2441C113.148 22.1679 112.976 23.21 112.976 24.3706C112.976 25.5463 113.152 26.6038 113.503 27.5429C113.854 28.482 114.373 29.2264 115.061 29.7761C115.755 30.3182 116.61 30.5892 117.626 30.5892ZM135.195 33.521C133.546 33.521 132.106 33.1431 130.877 32.3873C129.648 31.6314 128.694 30.574 128.014 29.2149C127.335 27.8559 126.995 26.2678 126.995 24.4507C126.995 22.626 127.335 21.0303 128.014 19.6636C128.694 18.297 129.648 17.2357 130.877 16.4798C132.106 15.724 133.546 15.3461 135.195 15.3461C136.844 15.3461 138.283 15.724 139.512 16.4798C140.742 17.2357 141.696 18.297 142.375 19.6636C143.055 21.0303 143.395 22.626 143.395 24.4507C143.395 26.2678 143.055 27.8559 142.375 29.2149C141.696 30.574 140.742 31.6314 139.512 32.3873C138.283 33.1431 136.844 33.521 135.195 33.521ZM135.206 30.6465C136.275 30.6465 137.161 30.364 137.863 29.799C138.566 29.234 139.085 28.482 139.421 27.5429C139.764 26.6038 139.936 25.5692 139.936 24.4393C139.936 23.3169 139.764 22.2862 139.421 21.3471C139.085 20.4004 138.566 19.6407 137.863 19.0681C137.161 18.4955 136.275 18.2092 135.206 18.2092C134.13 18.2092 133.236 18.4955 132.526 19.0681C131.824 19.6407 131.301 20.4004 130.957 21.3471C130.621 22.2862 130.454 23.3169 130.454 24.4393C130.454 25.5692 130.621 26.6038 130.957 27.5429C131.301 28.482 131.824 29.234 132.526 29.799C133.236 30.364 134.13 30.6465 135.206 30.6465Z" fill="#1C1817"/>
<path d="M23.6749 34.5204C23.7135 30.5736 22.7129 27.3641 21.4401 27.3516C20.1672 27.3392 19.1041 30.5286 19.0655 34.4753C19.0269 38.4221 20.0275 41.6317 21.3003 41.6441C22.5732 41.6566 23.6363 38.4672 23.6749 34.5204Z" fill="#FE5401"/>
<path d="M16.2958 33.6246C18.4622 30.3253 19.3559 27.0843 18.2919 26.3857C17.2278 25.687 14.609 27.7952 12.4427 31.0945C10.2762 34.3938 9.3826 37.6347 10.4466 38.3335C11.5107 39.0322 14.1294 36.9239 16.2958 33.6246Z" fill="#FE5401"/>
<path d="M10.5615 28.891C14.1678 27.2869 16.6719 25.0437 16.1545 23.8806C15.6372 22.7176 12.2944 23.0751 8.68808 24.6793C5.08179 26.2834 2.5777 28.5266 3.09503 29.6897C3.61236 30.8527 6.95521 30.4951 10.5615 28.891Z" fill="#FE5401"/>
<path d="M15.7216 20.6197C15.9153 19.3616 12.9098 17.855 9.00887 17.2545C5.10781 16.6541 1.78843 17.1873 1.59479 18.4454C1.40116 19.7035 4.40658 21.21 8.30761 21.8105C12.2086 22.4109 15.528 21.8777 15.7216 20.6197Z" fill="#FE5401"/>
<path d="M17.1219 17.6215C17.9648 16.6678 16.2507 13.7757 13.2932 11.1619C10.3358 8.54813 7.25492 7.20244 6.41197 8.15623C5.56901 9.11004 7.28317 12.0021 10.2407 14.6159C13.1981 17.2297 16.279 18.5754 17.1219 17.6215Z" fill="#FE5401"/>
<path d="M19.908 15.8681C21.1328 15.5216 21.2545 12.1618 20.1799 8.36399C19.1052 4.56616 17.2411 1.76837 16.0162 2.11496C14.7914 2.46155 14.6697 5.82126 15.7444 9.61913C16.8191 13.4169 18.6832 16.2147 19.908 15.8681Z" fill="#FE5401"/>
<path d="M27.4849 9.73868C28.6343 5.96276 28.5789 2.6013 27.3611 2.23063C26.1434 1.85995 24.2244 4.62043 23.075 8.39634C21.9257 12.1722 21.9811 15.5337 23.1989 15.9044C24.4166 16.275 26.3356 13.5146 27.4849 9.73868Z" fill="#FE5401"/>
<path d="M32.8967 14.8399C35.9047 12.2844 37.6751 9.42637 36.8509 8.45632C36.0267 7.48624 32.9201 8.77148 29.9122 11.3269C26.9042 13.8824 25.1339 16.7404 25.958 17.7105C26.7821 18.6806 29.8887 17.3954 32.8967 14.8399Z" fill="#FE5401"/>
<path d="M34.6869 22.0591C38.599 21.5357 41.6335 20.0886 41.4647 18.8269C41.296 17.5653 37.9877 16.9668 34.0756 17.4902C30.1635 18.0136 27.1289 19.4606 27.2977 20.7223C27.4665 21.9839 30.7747 22.5825 34.6869 22.0591Z" fill="#FE5401"/>
<path d="M39.7316 30.0484C40.2718 28.8959 37.8125 26.6037 34.2385 24.9288C30.6646 23.2538 27.3294 22.8304 26.7892 23.983C26.2491 25.1357 28.7084 27.4278 32.2824 29.1028C35.8563 30.7776 39.1915 31.2011 39.7316 30.0484Z" fill="#FE5401"/>
<path d="M32.2149 38.5526C33.2925 37.8751 32.463 34.617 30.3621 31.2757C28.2612 27.9343 25.6844 25.7749 24.6069 26.4525C23.5293 27.13 24.3588 30.388 26.4597 33.7293C28.5606 37.0707 31.1374 39.2302 32.2149 38.5526Z" fill="#FE5401"/>
</svg>
